<?xml version="1.0" encoding="UTF-8"?>
<svg id="_Слой_2" data-name="Слой 2" xmlns="http://www.w3.org/2000/svg" viewBox="0 0 86.41 59.68">
  <defs>
    <style>
      .cls-1, .cls-2 {
        fill: #1e1e1e;
      }

      .cls-2 {
        fill-rule: evenodd;
      }
    </style>
  </defs>
  <g id="_Слой_4" data-name="Слой 4">
    <path class="cls-1" d="M38.05,49.88c.08-.29,1.84-1.15,1.04-1.58-.19-.02-.57-.59-.69-.72-.03-.03-.44,0-.35-.36.05-.22,1.09-1.02,1.3-1.29.09-.11-.22-.26-.22-.41-.55-.25-.54-.36-.85-.79-.06-.08-.31-.16-.28-.38.05-.17,1.72-1.03,1.09-1.48-.47-.26-.65-.45-.89-.89,0-.01-.14-.02-.15-.11-.07-.35.98-1.05,1.19-1.33.11-.15-.17-.29-.22-.41h0c-.5-.26-.54-.47-.85-.79-.03-.03-.43,0-.31-.26.36-.45.83-.82,1.23-1.25.2-.22,0-.14-.11-.35-.29-.15-.62-.56-.85-.79-.09-.08-.43-.11-.36-.36.3-.39.71-.7,1.06-1.05.15-.15.36-.2.22-.48-.38-.2-.75-.53-1.01-.85-.07-.09-.31-.1-.24-.4.09-.41,1.58-1.06,1-1.56-.29.08-.77-.75-.89-.89-.02-.02-.27-.02-.29-.08-.03-.11,1.15-1.25,1.39-1.39-.23-.37-.65-.52-.89-.89-.28-.16-.12-.22-.36-.02-.42.36-.78.81-1.22,1.17l-.15.06c-.05-.05-.06-.19-.09-.21-.4-.26-.99-.68-1.33-.99-.58.18-.93.99-1.41,1.22-.22.11-.29-.12-.41-.22-.89-.75-1.76-1.55-2.55-2.37-.07-.07-.56-.05-.36-.54.56-.35,2.78-2.97,3.26-2.88.19.04,1.07,1.23,1.37,1.19.43-.3,2.79-2.8,2.99-2.73l1.34,1.34c.18-.26,1.03-.75,1-1.03l-1.31-1.32c.11-.43,1.35-1.15,1.2-1.52-.13-.34-1.14-.79-1.28-1.23-.02-.25,1.15-1.1,1.42-1.3-.1-.11-.18-.29-.29-.38-.78-.69-1.74-1.26-2.42-2.05-.08-.09-.24-.15-.25-.31l.11-.23,4.58-4.26c1.46,1.47,3.35,2.69,4.67,4.28.01.02.15-.03.16.06l-2.78,2.66c-.05.23,1.23,1.09,1.43,1.38,0,.15-.37.14-.44.21-.11.11-.55,1.02-.96,1.18.1.36,1.46,1.21,1.38,1.45-.06.05-.2.05-.22.08-.26.29-.76.98-1.11,1.11.04.21.94.99,1.01.98.5-.07,1.19-1.28,1.52-1.21.39.07,2.43,2.18,2.9,2.55.3.07,1.46-1.48,1.64-1.41.27.57,3.41,2.81,3.28,3.19-.05.06-.19.05-.21.08-.58.67-2,2.22-2.69,2.7-.14.09-.27.17-.44.21-.07-.08-.08-.27-.13-.32-.27-.24-1.01-.86-1.33-.99-.35.39-1.1,1.51-1.62,1.17-.38-.24-.85-.69-1.1-1.06-.55.1-.74.66-1.2.9.29.29,1.23,1.08,1.34,1.34.03.06.08.13.06.2-.06.17-1.16.9-1.32,1.21.31.32,1.19,1.06,1.34,1.34.03.06.09.14.07.2l-1.32,1.21c.46.35.88.97,1.43,1.25.18.25-.18.18-.28.28-.31.28-.71.96-1.11,1.11.22.55,1.09.86,1.34,1.34.03.06.08.14.06.2-.03.08-1.22,1.17-1.32,1.21.36.51.89.91,1.34,1.34.02.02.15-.03.16.06-.48.2-1.04,1.17-1.41,1.34.06.38,1.49,1.2,1.38,1.45-.02.05-.3.07-.34.12,0,0,.09.14,0,.24-.18.21-.66.67-.89.79-.1.51,1.26,1.18,1.28,1.53l-1.3,1.26c-.08.27,1.39,1.12,1.41,1.55-.06.05-.2.05-.22.08-1.33,1.52-2.99,2.79-4.35,4.29-.24.17-.17-.09-.24-.15-1.51-1.14-2.99-2.48-4.33-3.8-.1-.1-.45-.15-.44-.44Z"/>
    <g>
      <path class="cls-2" d="M56.92,18.69s-.05.04-.01.05c.03,0,.07-.02.09-.05.04-.05.02-.05-.07,0ZM77.3,12.24s-.02,0-.02.05,0,.09.02.06c.01-.03.01-.08,0-.11ZM77.3,12.24s-.02,0-.02.05,0,.09.02.06c.01-.03.01-.08,0-.11ZM77.3,12.24s-.02,0-.02.05,0,.09.02.06c.01-.03.01-.08,0-.11ZM77.3,12.24s-.02,0-.02.05,0,.09.02.06c.01-.03.01-.08,0-.11ZM85.93,20.23v-1.58s-.85,0-.85,0h-.31s-.02,0-.02,0h-.4s-.11,0-.11,0h0s0-.05,0-.05v-.7s0-.75,0-.75h.84s.84,0,.84,0l-.04-7.05-.04-7.05h-.84s-.68,0-.68,0h-.16s0,0,0,0v-.77s0-.77,0-.77h-.02s-.02,0-.02,0h-.01s-.07,0-.07,0c-.07,0-.47,0-.88,0h-.41s-.01,0-.01,0h-.08s-.21,0-.21,0h-.05s0,.77,0,.77v.77s0,0,0,0h0s-.84,0-.84,0h-.84s0,1.57,0,1.57v1.56s-.85,0-.85,0h-.53s-.29,0-.29,0h-.05s0,1.56,0,1.56v1.57s-1.64,0-1.64,0h-.65s-.99,0-.99,0h0s0-.03,0-.03l-.02-1.54-.02-1.57h-.85s0,.01,0,.01h-.09s-.48,0-.48,0h-.27s0-1.54,0-1.54v-.76s0-.81,0-.81h0s-1.66-.01-1.66-.01h0s-.01,0-.01,0h0s0-.77,0-.77c0-.04,0-.08,0-.12,0-.07,0-.14,0-.19,0-.06,0-.11,0-.15,0-.2-.02-.27-.04-.29h0s-.02-.01-.03-.01h-.01s-.04,0-.04,0h-.03s-.11,0-.11,0h-.16s0,0,0,0h-.21s-.08,0-.08,0h-.05s-.41,0-.41,0h-.14s-.24,0-.24,0h-.15s-1.68,0-1.68,0h-.02s0,0,0,0v.77s-.02.6-.02.6v.17s-.08,0-.08,0h-.76s-.84.03-.84.03h0s0,.02,0,.02v1.52s0,1.54,0,1.54l-.85.02h-.6s-.01.01-.01.01h-.19s-.05,0-.05,0v1.56s.02,1.53.02,1.53v.03s-1.65,0-1.65,0h-1.65s0-.01,0-.01l-.02-1.55-.02-1.57h-.85s-.25.01-.25.01h-.61s0,0,0,0v-.23s0-1.33,0-1.33h0s0-1.57,0-1.57h-.84s-.64,0-.64,0h-.19s0-.15,0-.15v-.62s-.03-.77-.03-.77h0s-.85,0-.85,0c-.47,0-.86,0-.87.01-.01.01-.02.36-.02.78v.71s0,.04,0,.04h0s-.03,0-.03,0h-.36s-.01,0-.02,0h-.43s-.84,0-.84,0l.04,7.05.04,6.7v.29s0,.05,0,.05h1.67s0,.74,0,.74v.7s0,.05,0,.05h-.39s-.36,0-.36,0c-.03,0-.06,0-.08,0h-.08s-.76,0-.76,0v1.58s.02,1.59.02,1.59h.86s.71,0,.71,0h.04s.02,0,.02,0h.03s0,0,0,0l.02.76.02.77,13.57-.06,13.55-.06h.02s0-.77,0-.77v-.75s0-.02,0-.02h.11s.67,0,.67,0h.03s.05,0,.05,0h.18s.02,0,.02,0h.62s0-1.59,0-1.59ZM84.2,18.7v.31s0,.04,0,.04v1.16s0,1.53,0,1.53l-6.75.04h0s-3.4.03-3.4.03h0s0-1.54,0-1.54v-1.54s2.54-.01,2.54-.01h.81s6.23-.03,6.23-.03h.57ZM74.83,9.4c.55,0,.81.01.75.04-.05.03-.05.04-.01.04.04,0,.06.17.06.73v.73s.05,0,.05,0h0s.85,0,.85,0h.39s.42,0,.42,0h.02s0,.05,0,.05h0s.02.76.02.76c0,.15,0,.41.01.74,0,.63,0,1.52,0,2.34v2.28s-1.68,0-1.68,0h-1.67s-.02-3.84-.02-3.84l-.02-3.85h.83ZM77.3,12.35s.01-.08,0-.11c-.01-.03-.02,0-.02.05s0,.09.02.06ZM77.3,12.24s-.02,0-.02.05,0,.09.02.06c.01-.03.01-.08,0-.11ZM77.3,12.24s-.02,0-.02.05,0,.09.02.06c.01-.03.01-.08,0-.11Z"/>
      <path class="cls-2" d="M77.39,14.82c0-1.25,0-2.64-.02-3.08l-.02-.8h-.86s-.86,0-.86,0v-.73c0-.55-.02-.73-.07-.73-.04,0-.04-.01.01-.04.05-.03-.2-.04-.75-.04h-.83s.02,3.86.02,3.86l.02,3.85h1.67s1.67-.01,1.67-.01v-2.28ZM77.28,12.3c0-.06.01-.09.02-.05.01.03.01.08,0,.11-.01.03-.02,0-.02-.06Z"/>
      <path class="cls-2" d="M77.42,12.45h-.02s0-.76,0-.76v-.49s0-.02,0-.03c0-.09-.01-.15-.02-.19v.72s0,.77,0,.77h.02s.03,0,.03,0v-.02ZM75.69,10.94h0s0-.04,0-.04v.04ZM85.91,21.72v-1.5s-.02-1.56-.02-1.56h-.85s-.12-.01-.12-.01c-.05,0-.1,0-.15,0,0,0-.02,0-.02,0-.3,0-.47-.02-.51-.05,0,0,0,0,0,0-.02-.03-.03-.37-.03-.75v-.7s.84-.01.84-.01h.83s0-.05,0-.05l-.04-6.98-.04-6.98v-.04s-.85,0-.85,0h-.64s-.16,0-.16,0h-.04s0,0,0,0v-.11s0,0,0-.01v-.64s.01-.77.01-.77h0s-.03,0-.03,0h-.01s-.83,0-.83,0h-.09s-.45,0-.45,0h-.01s-.29,0-.29,0h-.05s0,0,0,0v.77s0,.77,0,.77h0s0,0,0,0h-.84s-.84,0-.84,0v1.56s.02,1.56.02,1.56h-.84s-.55,0-.55,0h-.29s0,.05,0,.05v1.54s.02,1.54.02,1.54h-.05s-1.65,0-1.65,0h-.65s-.99,0-.99,0h0s0-.03,0-.03l-.02-.08s-.02-.52-.03-1.12v-.14s0-.16,0-.16v-.02s0-.1,0-.1v-1.44s-.01,0-.01,0h-.83s-.58-.01-.58-.01h-.08s-.18,0-.18,0v-1.54s-.01-.76-.01-.76v-.78s0-.02,0-.02v-.02s-.83,0-.83,0h-.82s0,0,0,0h-.01s0-.01,0-.01v-.76s0-.12,0-.12v-.19s0-.15,0-.15v-.31s-.04,0-.04,0h0s-.04,0-.04,0h-.01s-.04,0-.04,0h-.03s-.11,0-.11,0h-.16s0,0,0,0h-.21s-.08,0-.08,0h-.05s-.41,0-.41,0h-.14s-.24,0-.24,0h-.15s-1.68,0-1.68,0h-.03s-.02,0-.02,0v.77s0,.6,0,.6v.17s0,0,0,0h-.08s-.76,0-.76,0h-.84s0,.03,0,.03v.02s0,.25,0,.25v1.26s.02,1.56.02,1.56h-.84s-.63,0-.63,0h-.01s-.19,0-.19,0h0s0,.04,0,.04v.17s0,.33,0,.33v.97c0,.83,0,1.53,0,1.56,0,0,0,0,0,0,0,0-.01,0-.03.01-.11.03-.54.03-1.64.03h-1.66s-.02,0-.02,0l-.02-1.55-.02-1.13v-.24s0-.13,0-.13v-.04s-.84,0-.84,0h-.23s-.61,0-.61,0v-1.56s0,0,0,0v-1.56s-.85,0-.85,0h-.64s-.19,0-.19,0h0s0-.15,0-.15v-.62s0-.77,0-.77h-.02s-.02,0-.02,0h-.84s-.31,0-.31,0c-.02,0-.04,0-.06,0h-.01c-.24,0-.42.02-.45.03h0s0,.34,0,.72c0,.38,0,.71-.03.74,0,0,0,0-.01,0-.04.02-.16.04-.39.05,0,0-.01,0-.02,0-.11,0-.26.01-.43.01l-.81.02h0s.04,7.02.04,7.02l.04,7v.02s.84,0,.84,0h.84s.01.68.01.68c0,.37,0,.71-.01.76,0,.01,0,.02-.02.03-.04.03-.12.04-.39.05h-.36s-.06,0-.09,0c-.02,0-.05,0-.08,0,0,0-.02,0-.03,0h-.73s0,1.59,0,1.59v1.59s.87,0,.87,0h.61s.08,0,.1,0c.02,0,.03,0,.04,0,0,0,.02,0,.02,0h.03s.06,0,.06,0v.31s0,.1,0,.15v.31s-.02.77-.02.77h2.09s.7-.02.7-.02l10.77-.06,13.55-.07h.02s0-.75,0-.75v-.75s.03,0,.03,0l.77-.02h.03s.05,0,.05,0c.02,0,.04,0,.07,0l.64-.02h0s.08,0,.08,0v-.07ZM58.79,20.35v-1.54s.85,0,.85,0h.86s0,1.54,0,1.54v1.54s-1.72,0-1.72,0v-1.54ZM84.2,19.02v.04s0,1.16,0,1.16v1.53s-6.75.04-6.75.04h-.85s-2.55.02-2.55.02l-4.98.03h-.07s0-1.54,0-1.54v-1.54s5.07-.02,5.07-.02h2.53s.81-.02.81-.02l6.23-.03h.57s0,.32,0,.32ZM60.42,8.68c0,.08,0,.17,0,.26v.5c.03,1.35.05,3.27.06,4.68l.02,3.09c-.32,0-.61,0-.86,0h-.86s0,0,0,0l-.03-5.43-.03-5.44h.83s.74,0,.74,0h.08s.05,2.34.05,2.34ZM84.12,3.11l.04,7,.04,6.99h0s-.6.01-.6.01h-.05s-.19,0-.19,0h-.84s-5.93.03-5.93.03c-4.16.02-7.58.03-7.62.02-.01,0-.03-3.16-.05-7v-3.85s-.02-2.35-.02-2.35v-.78s3.35-.02,3.35-.02v1.56s.02,1.56.02,1.56h.84s.78,0,.78,0h.05s.02,1.54.02,1.54v.04s.02,1.5.02,1.5v.02s.85,0,.85,0h.79s.06,0,.06,0v.61s0,.09,0,.14v.57s0,.06,0,.06v.12s0,0,0,0v.04s0,0,0,0h.85s.81-.01.81-.01h.02s0,.05,0,.05h0s0,.73,0,.73v.77s.02,0,.02,0h.03s.84,0,.84,0h.66s.02,0,.02,0h.16s0-.18,0-.18v-1.28c0-.81,0-1.5-.01-1.54,0-.02,0-.03.02-.05.06-.03.26-.04.82-.05l.85-.02v-1.55s0-1.55,0-1.55h0s.18,0,.18,0h.66s.84,0,.84,0v-.05s0-1.52,0-1.52v-.02s0-1.54,0-1.54h.84s.84,0,.84,0Z"/>
      <path class="cls-2" d="M84.19,17.1h-.6s.6.01.6.01h0ZM79.09,12.47h0s-.16,0-.16,0h.16ZM76.93,10.93h.42s0,0,0,0h-.42ZM65.53,9.54v.64s-.02.78-.02.78l-.85.02h-.8s.84,0,.84,0h.84s0-.77,0-.77v-.68ZM63.82,11.76v.77s-.83,0-.83,0h-.84s0,0,0,0h.85s.85,0,.85,0v-.77s.02-.77.02-.77h-.05s0,.77,0,.77ZM85.92,20.14l-.02-1.47h-.85s-.12-.01-.12-.01h-.57s-.11,0-.11,0h0s-.05,0-.05,0h0s0-.15,0-.15v-.61s.02-.74.02-.74h0s.81-.04.81-.04h.03s.8-.02.8-.02h.03s-.04-6.98-.04-6.98l-.04-6.98h-.02s-.75-.02-.75-.02h-.06c-.46-.02-.84-.03-.85-.03,0,0,0,0,0-.01,0-.02,0-.06,0-.11,0,0,0,0,0-.01,0-.06,0-.13,0-.21v-.43s0-.77,0-.77h0s-.01,0-.01,0h-.83s-.09,0-.09,0h-.45s-.01,0-.01,0h-.08s-.21,0-.21,0h0s0,.77,0,.77c0,.06,0,.11,0,.16,0,.43,0,.56-.05.61h0s-.02.02-.03.02c-.03.01-.26.02-.54.02-.1,0-.2,0-.31,0h-.77s0,1.54,0,1.54v1.55s-.84,0-.84,0h-.55s-.29,0-.29,0v.04s.01,1.54.01,1.54v1.54s-.04,0-.04,0h-1.65s-.65,0-.65,0h-.99s0,0,0,0h0s-.05,0-.05,0v-1.38s0-.16,0-.16v-.02s0-1.52,0-1.52v-.02s0-.02,0-.02h-.83s0,0,0,0h-.09s-.57,0-.57,0h-.18s0,0,0,0v-1.54s-.01-.76-.01-.76v-.78s-.03,0-.03,0h-.82s-.08,0-.08,0c-.34,0-.63-.01-.68-.02-.02,0-.03,0-.05-.02h0s0,0-.01-.01c-.05-.05-.05-.19-.05-.76v-.61s0-.14,0-.14h0s0-.01,0-.01h-.05s-.04,0-.04,0h-.03s-.11,0-.11,0h-.16s0,0,0,0h-.21s-.08,0-.08,0h-.05s-.41,0-.41,0h-.14s-.24,0-.24,0h-.15s-1.68,0-1.68,0v.77c0,.11,0,.21,0,.29v.03c0,.29-.02.41-.04.45,0,0-.01.01-.02.01-.04.01-.42.03-.85.03h-.79s0,.01,0,.01v1.53s0,.02,0,.02v1.53s-.84,0-.84,0h-.63s-.01,0-.01,0h-.19s0,0,0,0v.04s0,.17,0,.17v1.35s.02,1.56.02,1.56h-.02s-.03,0-.03,0h-1.65s-1.65.01-1.65.01h-.05s0-1.54,0-1.54v-.02s0-1.14,0-1.14v-.24s0-.18,0-.18h-.84s-.23,0-.23,0h-.61s0-.23,0-.23v-1.31s-.04-1.54-.04-1.54h-.84s-.84-.01-.84-.01l-.02-.78v-.78s-.85,0-.85,0h-.31s-.29,0-.29,0h-.24s0,.03,0,.03h0s0,.09,0,.09v.65s0,.76,0,.76h-.05s-.03.01-.03.01l-.12.02c-.1.01-.4.03-.71.03h-.14s-.65,0-.65,0l.02,7.01.03,6.71v.29s.03,0,.03,0h.02s.84,0,.84,0h.84s0,.79,0,.79v.75s-.04,0-.04,0h-.39s-.36,0-.36,0c-.03,0-.06,0-.08,0h0s-.05,0-.08,0c0,0-.02,0-.03,0-.36,0-.64.02-.67.04,0,0,0,0,0,0s0,0,0,0c-.04.07-.05.45-.03,1.56l.02,1.54h.74c.28.01.55.01.71.01.04,0,.08,0,.1,0,.02,0,.03,0,.04,0,0,0,.02,0,.02,0,.01,0,.02,0,.03,0,.03.02.04.08.05.3,0,.05,0,.1,0,.15,0,.09,0,.19,0,.31v.6s0,.17,0,.17h2.06s.7-.01.7-.01l10.78-.05,13.55-.06v-.02s0-.77,0-.77v-.75s.05,0,.05,0h.11s.68,0,.68,0c0,0,.01,0,.02,0,.02,0,.04,0,.05,0,.02,0,.04,0,.07,0,.04,0,.08,0,.11,0,0,0,.02,0,.02,0,.3,0,.44,0,.51-.02h0s.04-.01.05-.02h0s.01-.03.02-.05h0c.01-.07.01-.77,0-1.59ZM57.07,11.57v-1.34s-.01-1.26-.01-1.26c0-.17,0-.35,0-.52v-1.13s0-.49,0-.49c0-2.02,0-3.53.01-3.58.02-.02.4-.03.84-.03h.61s.2,0,.2,0h0s0,.39,0,.39v1.16s0,1.55,0,1.55h.84s.74.01.74.01h.08s.02,0,.02,0l.02,1.55v1.05s.02.5.02.5h.85s.85.02.85.02v1.54s.02,1.54.02,1.54h0s.85,0,.85,0h.85s0-.78,0-.78v-.77s.85,0,.85,0h.84s0-.77,0-.77v-.68s0-.09,0-.09h.85s.85-.03.85-.03v-1.55s0-1.55,0-1.55h.84s.83,0,.83,0h0s0-1.56,0-1.56v-.79s-.01-.78-.01-.78h0s3.35-.02,3.35-.02l.02,1.55.02,1.55h.84s.76.01.76.01h.05s.02,0,.02,0v1.54s0,.04,0,.04v1.5s.02,0,.02,0h.02s.12,0,.12,0h.61c.43,0,.81,0,.85,0,.01,0,.03,0,.03.03.04.06.05.25.06.76v.56s.01.06.01.06v.12s0,.04,0,.04h.85s.39,0,.39,0h.42s.01,0,.01,0h.02s0,.24,0,.24c0,0,0,.02,0,.03v.49s0,.76,0,.76h.02s.82,0,.82,0h.67s.02,0,.02,0h.16s0,0,0,0v-.18s0-1.37,0-1.37v-1.5s0-.06,0-.06h.84s.84,0,.84,0v-1.55s0-1.55,0-1.55h.18s.64-.01.64-.01l.82-.02v-.02s0-1.53,0-1.53v-1.55s.84,0,.84,0h.84s.04,7,.04,7l.04,6.99h-.6s-.05.01-.05.01l-1.03.02h-.06c-1.49.03-15.45.08-21.96.08-.32,0-.61,0-.86,0-.31,0-.6,0-.86,0-1.01,0-1.61,0-1.63-.01-.02-.01-.05-2.66-.07-5.64ZM84.19,21.77l-6.75.03h-3.4s-3.37.03-3.37.03h-1.61s-.07,0-.07,0l-8.47.04h-1.72s-1.67.02-1.67.02v-.61s-.01-.93-.01-.93v-1.54s.01,0,.01,0h.83c2.1-.05,23.04-.16,24.56-.14l1.12.02h.57s0,.32,0,.32v.04s0,1.18,0,1.18v1.53s-.01,0-.01,0Z"/>
      <polygon class="cls-2" points="84.19 21.75 77.44 21.79 76.6 21.8 74.05 21.81 74.05 20.28 74.06 18.74 76.59 18.73 77.4 18.72 83.63 18.7 84.2 18.7 84.2 19.02 84.2 19.06 84.2 20.22 84.19 21.75"/>
      <path class="cls-2" d="M85.88,20.23v-1.54s-.85,0-.85,0h-.84s0,.33,0,.33v.04s0,1.19,0,1.19v1.51s0,.02,0,.02v.02s-13.52.06-13.52.06l-13.52.06v.78s-.02.61-.02.61v.17s0,0,0,0h2.06s.7-.01.7-.01l10.78-.05,13.55-.06v-.02s0-.77,0-.77v-.75s0-.05,0-.05h.84s.84,0,.84,0h0s0,0,0,0v-1.54ZM79.09,12.28l-.02-1.37-.02-1.55h-1.64c-.9,0-1.66,0-1.69.02-.03,0-.04.24-.04.62,0,.05,0,.09,0,.14v.57s0,.06,0,.06v.12s0,0,0,0h.78c.43,0,.81,0,.85,0,.01,0,.03,0,.03.03,0,0,0,0,0,0,0,.01.01.02.01.04h0s.02.1.02.19c0,0,0,.02,0,.03,0,.11.01.27.02.49v.76s.01.02.01.02h.84s.66,0,.66,0h.02s.16,0,.16,0v-.18ZM80.74,7.79v-1.54s-.84,0-.84,0h-.84s0,1.55,0,1.55v1.54s.85,0,.85,0h.84s0-1.54,0-1.54ZM75.67,8.12v-.14s0-.16,0-.16v-.02s0-.1,0-.1v-1.42s-.85,0-.85,0h-.84s0,1.55,0,1.55v1.54s.13,0,.13,0h.72s.84,0,.84,0v-1.24ZM67.21,9.39v-1.54s-.02-1.54-.02-1.54h-.84s-.84,0-.84,0v.17s0,.33,0,.33v1.06s0,1.48,0,1.48v.04s0,.02,0,.02l-1.68.02-1.67.02v1.54s0,1.54,0,1.54h.84s.84,0,.84,0v-.77s0-.77,0-.77h.05s.8-.01.8-.01l.85-.02v-.78s.02-.64.02-.64v-.09s0-.05,0-.05h.84s.84,0,.84,0ZM62.12,7.87v-.02s0-1.39,0-1.39v-.13s-.84,0-.84,0h-.84s0,1.55,0,1.55v1.54s.84,0,.84,0h.84s0-1.55,0-1.55ZM85.87,17.08l-.04-6.98-.04-6.98v-.02s-.75,0-.75,0h-.06s-.03,0-.03,0h-.84s.04,7,.04,7l.04,6.99h0s.84,0,.84,0h.03s.8,0,.8,0v-.02ZM83.54,17.11h-.19s-.84,0-.84,0v.02s0,.75,0,.75v.77s.84,0,.84,0h.84s0,0,0,0v-.15s0-.62,0-.62v-.77s-.6,0-.6,0h-.05ZM82.45,4.68v-.02s0-1.54,0-1.54h-.62s-.21,0-.21,0h-.84s0,1.47,0,1.47c0,.81,0,1.5.01,1.54.01.06.11.07.85.07h.81s.02,0,.02,0h0s0-1.52,0-1.52ZM73.94,4.68v-1.53s-.82,0-.82,0h-.08s-.74,0-.74,0v1.54s.01,1.54.01,1.54h.82s.82-.03.82-.03v-1.53ZM68.86,4.72v-1.54s-.85,0-.85,0h-.81s-.03,0-.03,0h0s0,.25,0,.25l.02,1.27v.02s.02,1.51.02,1.51l1.65.02v-1.54ZM57.13,20.35v-1.53s0-.02,0-.02h.83s.83,0,.83,0v-.78s0-.78,0-.78h-.84s-.84,0-.84,0v.79s0,.75,0,.75v.05s-.84,0-.84,0h-.83s0,0,0,0h0s0,1.54,0,1.54v1.54s.85,0,.85,0h.84s0-.62,0-.62v-.94ZM57.06,10.23v-1.26s0-.52,0-.52v-1.13s0-.49,0-.49l-.02-3.61h-.84s-.08,0-.08,0h-.14s-.62,0-.62,0l.04,7,.04,7h.84s.84,0,.84,0l-.03-5.66v-1.34ZM84.11,2.72v-.43s0-.77,0-.77h-.84s-.09,0-.09,0h-.45s-.01,0-.01,0h-.29s0,0,0,0v.76c0,.06,0,.11,0,.16,0,.35.02.61.04.62.02,0,.4,0,.84,0l.8-.02v-.33ZM72.23,2.36v-.63s.01-.14.01-.14h0s0-.01,0-.01h0s-.04,0-.04,0h-.01s-.04,0-.04,0h-.03s-.11,0-.11,0h-.16s0,0,0,0h-.21s-.08,0-.08,0h-.05s-.41,0-.41,0h-.14s-.24,0-.24,0h-.15s-1.68,0-1.68,0v.77c0,.11,0,.21,0,.29v.03s0,.45,0,.45h1.57c.86,0,1.61,0,1.66,0,.09,0,.1-.03.11-.78ZM60.38,4.75v-1.54s-.84,0-.84,0h-.84s-.01-.78-.01-.78l-.02-.78h-.83s-.36-.01-.36-.01h-.01s-.21,0-.21,0h-.24s0,.03,0,.03h0s0,.09,0,.09l.02.66.02.78h.83s.63.01.63.01h.2s0,.39,0,.39v1.16s.01,1.54.01,1.54h.84s.84,0,.84,0v-1.54Z"/>
    </g>
    <g>
      <path class="cls-2" d="M2.09,54.88s-.05.04-.01.05c.03,0,.07-.02.09-.05.04-.05.02-.05-.07,0ZM22.48,48.44s-.02,0-.02.05,0,.09.02.06c.01-.03.01-.08,0-.11ZM22.48,48.44s-.02,0-.02.05,0,.09.02.06c.01-.03.01-.08,0-.11ZM22.48,48.44s-.02,0-.02.05,0,.09.02.06c.01-.03.01-.08,0-.11ZM22.48,48.44s-.02,0-.02.05,0,.09.02.06c.01-.03.01-.08,0-.11ZM31.11,56.42v-1.58s-.85,0-.85,0h-.31s-.02,0-.02,0h-.4s-.11,0-.11,0h0s0-.05,0-.05v-.7s0-.75,0-.75h.84s.84,0,.84,0l-.04-7.05-.04-7.05h-.84s-.68,0-.68,0h-.16s0,0,0,0v-.77s0-.77,0-.77h-.02s-.02,0-.02,0h-.01s-.07,0-.07,0c-.07,0-.47,0-.88,0h-.41s-.01,0-.01,0h-.08s-.21,0-.21,0h-.05s0,.77,0,.77v.77s0,0,0,0h0s-.84,0-.84,0h-.84s0,1.57,0,1.57v1.56s-.85,0-.85,0h-.53s-.29,0-.29,0h-.05s0,1.56,0,1.56v1.57s-1.64,0-1.64,0h-.65s-.99,0-.99,0h0s0-.03,0-.03l-.02-1.54-.02-1.57h-.85s0,.01,0,.01h-.09s-.48,0-.48,0h-.27s0-1.54,0-1.54v-.76s0-.81,0-.81h0s-1.66-.01-1.66-.01h0s-.01,0-.01,0h0s0-.77,0-.77c0-.04,0-.08,0-.12,0-.07,0-.14,0-.19,0-.06,0-.11,0-.15,0-.2-.02-.27-.04-.29h0s-.02-.01-.03-.01h-.01s-.04,0-.04,0h-.03s-.11,0-.11,0h-.16s0,0,0,0h-.21s-.08,0-.08,0h-.05s-.41,0-.41,0h-.14s-.24,0-.24,0h-.15s-1.68,0-1.68,0h-.02s0,0,0,0v.77s-.02.6-.02.6v.17s-.08,0-.08,0h-.76s-.84.03-.84.03h0s0,.02,0,.02v1.52s0,1.54,0,1.54l-.85.02h-.6s-.01.01-.01.01h-.19s-.05,0-.05,0v1.56s.02,1.53.02,1.53v.03s-1.65,0-1.65,0h-1.65s0-.01,0-.01l-.02-1.55-.02-1.57h-.85s-.25.01-.25.01h-.61s0,0,0,0v-.23s0-1.33,0-1.33h0s0-1.57,0-1.57h-.84s-.64,0-.64,0h-.19s0-.15,0-.15v-.62s-.03-.77-.03-.77h0s-.85,0-.85,0c-.47,0-.86,0-.87.01-.01.01-.02.36-.02.78v.71s0,.04,0,.04h0s-.03,0-.03,0h-.36s-.01,0-.02,0h-.43s-.84,0-.84,0l.04,7.05.04,6.7v.29s0,.05,0,.05h1.67s0,.74,0,.74v.7s0,.05,0,.05h-.39s-.36,0-.36,0c-.03,0-.06,0-.08,0h-.08s-.76,0-.76,0v1.58s.02,1.59.02,1.59h.86s.71,0,.71,0h.04s.02,0,.02,0h.03s0,0,0,0l.02.76.02.77,13.57-.06,13.55-.06h.02s0-.77,0-.77v-.75s0-.02,0-.02h.11s.67,0,.67,0h.03s.05,0,.05,0h.18s.02,0,.02,0h.62s0-1.59,0-1.59ZM29.38,54.9v.31s0,.04,0,.04v1.16s0,1.53,0,1.53l-6.75.04h0s-3.4.03-3.4.03h0s0-1.54,0-1.54v-1.54s2.54-.01,2.54-.01h.81s6.23-.03,6.23-.03h.57ZM20,45.6c.55,0,.81.01.75.04-.05.03-.05.04-.01.04.04,0,.06.17.06.73v.73s.05,0,.05,0h0s.85,0,.85,0h.39s.42,0,.42,0h.02s0,.05,0,.05h0s.02.76.02.76c0,.15,0,.41.01.74,0,.63,0,1.52,0,2.34v2.28s-1.68,0-1.68,0h-1.67s-.02-3.84-.02-3.84l-.02-3.85h.83ZM22.48,48.55s.01-.08,0-.11c-.01-.03-.02,0-.02.05s0,.09.02.06ZM22.48,48.44s-.02,0-.02.05,0,.09.02.06c.01-.03.01-.08,0-.11ZM22.48,48.44s-.02,0-.02.05,0,.09.02.06c.01-.03.01-.08,0-.11Z"/>
      <path class="cls-2" d="M22.57,51.01c0-1.25,0-2.64-.02-3.08l-.02-.8h-.86s-.86,0-.86,0v-.73c0-.55-.02-.73-.07-.73-.04,0-.04-.01.01-.04.05-.03-.2-.04-.75-.04h-.83s.02,3.86.02,3.86l.02,3.85h1.67s1.67-.01,1.67-.01v-2.28ZM22.46,48.49c0-.06.01-.09.02-.05.01.03.01.08,0,.11-.01.03-.02,0-.02-.06Z"/>
      <path class="cls-2" d="M22.6,48.65h-.02s0-.76,0-.76v-.49s0-.02,0-.03c0-.09-.01-.15-.02-.19v.72s0,.77,0,.77h.02s.03,0,.03,0v-.02ZM20.86,47.14h0s0-.04,0-.04v.04ZM31.09,57.92v-1.5s-.02-1.56-.02-1.56h-.85s-.12-.01-.12-.01c-.05,0-.1,0-.15,0,0,0-.02,0-.02,0-.3,0-.47-.02-.51-.05,0,0,0,0,0,0-.02-.03-.03-.37-.03-.75v-.7s.84-.01.84-.01h.83s0-.05,0-.05l-.04-6.98-.04-6.98v-.04s-.85,0-.85,0h-.64s-.16,0-.16,0h-.04s0,0,0,0v-.11s0,0,0-.01v-.64s.01-.77.01-.77h0s-.03,0-.03,0h-.01s-.83,0-.83,0h-.09s-.45,0-.45,0h-.01s-.29,0-.29,0h-.05s0,0,0,0v.77s0,.77,0,.77h0s0,0,0,0h-.84s-.84,0-.84,0v1.56s.02,1.56.02,1.56h-.84s-.55,0-.55,0h-.29s0,.05,0,.05v1.54s.02,1.54.02,1.54h-.05s-1.65,0-1.65,0h-.65s-.99,0-.99,0h0s0-.03,0-.03l-.02-.08s-.02-.52-.03-1.12v-.14s0-.16,0-.16v-.02s0-.1,0-.1v-1.44s-.01,0-.01,0h-.83s-.58-.01-.58-.01h-.08s-.18,0-.18,0v-1.54s-.01-.76-.01-.76v-.78s0-.02,0-.02v-.02s-.83,0-.83,0h-.82s0,0,0,0h-.01s0-.01,0-.01v-.76s0-.12,0-.12v-.19s0-.15,0-.15v-.31s-.04,0-.04,0h0s-.04,0-.04,0h-.01s-.04,0-.04,0h-.03s-.11,0-.11,0h-.16s0,0,0,0h-.21s-.08,0-.08,0h-.05s-.41,0-.41,0h-.14s-.24,0-.24,0h-.15s-1.68,0-1.68,0h-.03s-.02,0-.02,0v.77s0,.6,0,.6v.17s0,0,0,0h-.08s-.76,0-.76,0h-.84s0,.03,0,.03v.02s0,.25,0,.25v1.26s.02,1.56.02,1.56h-.84s-.63,0-.63,0h-.01s-.19,0-.19,0h0s0,.04,0,.04v.17s0,.33,0,.33v.97c0,.83,0,1.53,0,1.56,0,0,0,0,0,0,0,0-.01,0-.03.01-.11.03-.54.03-1.64.03h-1.66s-.02,0-.02,0l-.02-1.55-.02-1.13v-.24s0-.13,0-.13v-.04s-.84,0-.84,0h-.23s-.61,0-.61,0v-1.56s0,0,0,0v-1.56s-.85,0-.85,0h-.64s-.19,0-.19,0h0s0-.15,0-.15v-.62s0-.77,0-.77h-.02s-.02,0-.02,0h-.84s-.31,0-.31,0c-.02,0-.04,0-.06,0h-.01c-.24,0-.42.02-.45.03h0s0,.34,0,.72c0,.38,0,.71-.03.74,0,0,0,0-.01,0-.04.02-.16.04-.39.05,0,0-.01,0-.02,0-.11,0-.26.01-.43.01l-.81.02h0s.04,7.02.04,7.02l.04,7v.02s.84,0,.84,0h.84s.01.68.01.68c0,.37,0,.71-.01.76,0,.01,0,.02-.02.03-.04.03-.12.04-.39.05h-.36s-.06,0-.09,0c-.02,0-.05,0-.08,0,0,0-.02,0-.03,0h-.73s0,1.59,0,1.59v1.59s.87,0,.87,0h.61s.08,0,.1,0c.02,0,.03,0,.04,0,0,0,.02,0,.02,0h.03s.06,0,.06,0v.31s0,.1,0,.15v.31s-.02.77-.02.77h2.09s.7-.02.7-.02l10.77-.06,13.55-.07h.02s0-.75,0-.75v-.75s.03,0,.03,0l.77-.02h.03s.05,0,.05,0c.02,0,.04,0,.07,0l.64-.02h0s.08,0,.08,0v-.07ZM3.97,56.55v-1.54s.85,0,.85,0h.86s0,1.54,0,1.54v1.54s-1.72,0-1.72,0v-1.54ZM29.38,55.22v.04s0,1.16,0,1.16v1.53s-6.75.04-6.75.04h-.85s-2.55.02-2.55.02l-4.98.03h-.07s0-1.54,0-1.54v-1.54s5.07-.02,5.07-.02h2.53s.81-.02.81-.02l6.23-.03h.57s0,.32,0,.32ZM5.6,44.88c0,.08,0,.17,0,.26v.5c.03,1.35.05,3.27.06,4.68l.02,3.09c-.32,0-.61,0-.86,0h-.86s0,0,0,0l-.03-5.43-.03-5.44h.83s.74,0,.74,0h.08s.05,2.34.05,2.34ZM29.29,39.31l.04,7,.04,6.99h0s-.6.01-.6.01h-.05s-.19,0-.19,0h-.84s-5.93.03-5.93.03c-4.16.02-7.58.03-7.62.02-.01,0-.03-3.16-.05-7v-3.85s-.02-2.35-.02-2.35v-.78s3.35-.02,3.35-.02v1.56s.02,1.56.02,1.56h.84s.78,0,.78,0h.05s.02,1.54.02,1.54v.04s.02,1.5.02,1.5v.02s.85,0,.85,0h.79s.06,0,.06,0v.61s0,.09,0,.14v.57s0,.06,0,.06v.12s0,0,0,0v.04s0,0,0,0h.85s.81-.01.81-.01h.02s0,.05,0,.05h0s0,.73,0,.73v.77s.02,0,.02,0h.03s.84,0,.84,0h.66s.02,0,.02,0h.16s0-.18,0-.18v-1.28c0-.81,0-1.5-.01-1.54,0-.02,0-.03.02-.05.06-.03.26-.04.82-.05l.85-.02v-1.55s0-1.55,0-1.55h0s.18,0,.18,0h.66s.84,0,.84,0v-.05s0-1.52,0-1.52v-.02s0-1.54,0-1.54h.84s.84,0,.84,0Z"/>
      <path class="cls-2" d="M29.37,53.3h-.6s.6.01.6.01h0ZM24.27,48.66h0s-.16,0-.16,0h.16ZM22.11,47.13h.42s0,0,0,0h-.42ZM10.71,45.73v.64s-.02.78-.02.78l-.85.02h-.8s.84,0,.84,0h.84s0-.77,0-.77v-.68ZM9,47.96v.77s-.83,0-.83,0h-.84s0,0,0,0h.85s.85,0,.85,0v-.77s.02-.77.02-.77h-.05s0,.77,0,.77ZM31.1,56.34l-.02-1.47h-.85s-.12-.01-.12-.01h-.57s-.11,0-.11,0h0s-.05,0-.05,0h0s0-.15,0-.15v-.61s.02-.74.02-.74h0s.81-.04.81-.04h.03s.8-.02.8-.02h.03s-.04-6.98-.04-6.98l-.04-6.98h-.02s-.75-.02-.75-.02h-.06c-.46-.02-.84-.03-.85-.03,0,0,0,0,0-.01,0-.02,0-.06,0-.11,0,0,0,0,0-.01,0-.06,0-.13,0-.21v-.43s0-.77,0-.77h0s-.01,0-.01,0h-.83s-.09,0-.09,0h-.45s-.01,0-.01,0h-.08s-.21,0-.21,0h0s0,.77,0,.77c0,.06,0,.11,0,.16,0,.43,0,.56-.05.61h0s-.02.02-.03.02c-.03.01-.26.02-.54.02-.1,0-.2,0-.31,0h-.77s0,1.54,0,1.54v1.55s-.84,0-.84,0h-.55s-.29,0-.29,0v.04s.01,1.54.01,1.54v1.54s-.04,0-.04,0h-1.65s-.65,0-.65,0h-.99s0,0,0,0h0s-.05,0-.05,0v-1.38s0-.16,0-.16v-.02s0-1.52,0-1.52v-.02s0-.02,0-.02h-.83s0,0,0,0h-.09s-.57,0-.57,0h-.18s0,0,0,0v-1.54s-.01-.76-.01-.76v-.78s-.03,0-.03,0h-.82s-.08,0-.08,0c-.34,0-.63-.01-.68-.02-.02,0-.03,0-.05-.02h0s0,0-.01-.01c-.05-.05-.05-.19-.05-.76v-.61s0-.14,0-.14h0s0-.01,0-.01h-.05s-.04,0-.04,0h-.03s-.11,0-.11,0h-.16s0,0,0,0h-.21s-.08,0-.08,0h-.05s-.41,0-.41,0h-.14s-.24,0-.24,0h-.15s-1.68,0-1.68,0v.77c0,.11,0,.21,0,.29v.03c0,.29-.02.41-.04.45,0,0-.01.01-.02.01-.04.01-.42.03-.85.03h-.79s0,.01,0,.01v1.53s0,.02,0,.02v1.53s-.84,0-.84,0h-.63s-.01,0-.01,0h-.19s0,0,0,0v.04s0,.17,0,.17v1.35s.02,1.56.02,1.56h-.02s-.03,0-.03,0h-1.65s-1.65.01-1.65.01h-.05s0-1.54,0-1.54v-.02s0-1.14,0-1.14v-.24s0-.18,0-.18h-.84s-.23,0-.23,0h-.61s0-.23,0-.23v-1.31s-.04-1.54-.04-1.54h-.84s-.84-.01-.84-.01l-.02-.78v-.78s-.85,0-.85,0h-.31s-.29,0-.29,0h-.24s0,.03,0,.03h0s0,.09,0,.09v.65s0,.76,0,.76h-.05s-.03.01-.03.01l-.12.02c-.1.01-.4.03-.71.03h-.14s-.65,0-.65,0l.02,7.01.03,6.71v.29s.03,0,.03,0h.02s.84,0,.84,0h.84s0,.79,0,.79v.75s-.04,0-.04,0h-.39s-.36,0-.36,0c-.03,0-.06,0-.08,0h0s-.05,0-.08,0c0,0-.02,0-.03,0-.36,0-.64.02-.67.04,0,0,0,0,0,0s0,0,0,0c-.04.07-.05.45-.03,1.56l.02,1.54h.74c.28.01.55.01.71.01.04,0,.08,0,.1,0,.02,0,.03,0,.04,0,0,0,.02,0,.02,0,.01,0,.02,0,.03,0,.03.02.04.08.05.3,0,.05,0,.1,0,.15,0,.09,0,.19,0,.31v.6s0,.17,0,.17h2.06s.7-.01.7-.01l10.78-.05,13.55-.06v-.02s0-.77,0-.77v-.75s.05,0,.05,0h.11s.68,0,.68,0c0,0,.01,0,.02,0,.02,0,.04,0,.05,0,.02,0,.04,0,.07,0,.04,0,.08,0,.11,0,0,0,.02,0,.02,0,.3,0,.44,0,.51-.02h0s.04-.01.05-.02h0s.01-.03.02-.05h0c.01-.07.01-.77,0-1.59ZM2.25,47.77v-1.34s-.01-1.26-.01-1.26c0-.17,0-.35,0-.52v-1.13s0-.49,0-.49c0-2.02,0-3.53.01-3.58.02-.02.4-.03.84-.03h.61s.2,0,.2,0h0s0,.39,0,.39v1.16s0,1.55,0,1.55h.84s.74.01.74.01h.08s.02,0,.02,0l.02,1.55v1.05s.02.5.02.5h.85s.85.02.85.02v1.54s.02,1.54.02,1.54h0s.85,0,.85,0h.85s0-.78,0-.78v-.77s.85,0,.85,0h.84s0-.77,0-.77v-.68s0-.09,0-.09h.85s.85-.03.85-.03v-1.55s0-1.55,0-1.55h.84s.83,0,.83,0h0s0-1.56,0-1.56v-.79s-.01-.78-.01-.78h0s3.35-.02,3.35-.02l.02,1.55.02,1.55h.84s.76.01.76.01h.05s.02,0,.02,0v1.54s0,.04,0,.04v1.5s.02,0,.02,0h.02s.12,0,.12,0h.61c.43,0,.81,0,.85,0,.01,0,.03,0,.03.03.04.06.05.25.06.76v.56s.01.06.01.06v.12s0,.04,0,.04h.85s.39,0,.39,0h.42s.01,0,.01,0h.02s0,.24,0,.24c0,0,0,.02,0,.03v.49s0,.76,0,.76h.02s.82,0,.82,0h.67s.02,0,.02,0h.16s0,0,0,0v-.18s0-1.37,0-1.37v-1.5s0-.06,0-.06h.84s.84,0,.84,0v-1.55s0-1.55,0-1.55h.18s.64-.01.64-.01l.82-.02v-.02s0-1.53,0-1.53v-1.55s.84,0,.84,0h.84s.04,7,.04,7l.04,6.99h-.6s-.05.01-.05.01l-1.03.02h-.06c-1.49.03-15.45.08-21.96.08-.32,0-.61,0-.86,0-.31,0-.6,0-.86,0-1.01,0-1.61,0-1.63-.01-.02-.01-.05-2.66-.07-5.64ZM29.37,57.97l-6.75.03h-3.4s-3.37.03-3.37.03h-1.61s-.07,0-.07,0l-8.47.04h-1.72s-1.67.02-1.67.02v-.61s-.01-.93-.01-.93v-1.54s.01,0,.01,0h.83c2.1-.05,23.04-.16,24.56-.14l1.12.02h.57s0,.32,0,.32v.04s0,1.18,0,1.18v1.53s-.01,0-.01,0Z"/>
      <polygon class="cls-2" points="29.37 57.95 22.62 57.99 21.77 58 19.22 58.01 19.23 56.48 19.23 54.94 21.77 54.93 22.58 54.92 28.81 54.89 29.38 54.9 29.38 55.22 29.38 55.26 29.37 56.42 29.37 57.95"/>
      <path class="cls-2" d="M31.06,56.42v-1.54s-.85,0-.85,0h-.84s0,.33,0,.33v.04s0,1.19,0,1.19v1.51s0,.02,0,.02v.02s-13.52.06-13.52.06l-13.52.06v.78s-.02.61-.02.61v.17s0,0,0,0h2.06s.7-.01.7-.01l10.78-.05,13.55-.06v-.02s0-.77,0-.77v-.75s0-.05,0-.05h.84s.84,0,.84,0h0s0,0,0,0v-1.54ZM24.27,48.48l-.02-1.37-.02-1.55h-1.64c-.9,0-1.66,0-1.69.02-.03,0-.04.24-.04.62,0,.05,0,.09,0,.14v.57s0,.06,0,.06v.12s0,0,0,0h.78c.43,0,.81,0,.85,0,.01,0,.03,0,.03.03,0,0,0,0,0,0,0,.01.01.02.01.04h0s.02.1.02.19c0,0,0,.02,0,.03,0,.11.01.27.02.49v.76s.01.02.01.02h.84s.66,0,.66,0h.02s.16,0,.16,0v-.18ZM25.92,43.99v-1.54s-.84,0-.84,0h-.84s0,1.55,0,1.55v1.54s.85,0,.85,0h.84s0-1.54,0-1.54ZM20.85,44.31v-.14s0-.16,0-.16v-.02s0-.1,0-.1v-1.42s-.85,0-.85,0h-.84s0,1.55,0,1.55v1.54s.13,0,.13,0h.72s.84,0,.84,0v-1.24ZM12.38,45.59v-1.54s-.02-1.54-.02-1.54h-.84s-.84,0-.84,0v.17s0,.33,0,.33v1.06s0,1.48,0,1.48v.04s0,.02,0,.02l-1.68.02-1.67.02v1.54s0,1.54,0,1.54h.84s.84,0,.84,0v-.77s0-.77,0-.77h.05s.8-.01.8-.01l.85-.02v-.78s.02-.64.02-.64v-.09s0-.05,0-.05h.84s.84,0,.84,0ZM7.3,44.07v-.02s0-1.39,0-1.39v-.13s-.84,0-.84,0h-.84s0,1.55,0,1.55v1.54s.84,0,.84,0h.84s0-1.55,0-1.55ZM31.04,53.28l-.04-6.98-.04-6.98v-.02s-.75,0-.75,0h-.06s-.03,0-.03,0h-.84s.04,7,.04,7l.04,6.99h0s.84,0,.84,0h.03s.8,0,.8,0v-.02ZM28.72,53.31h-.19s-.84,0-.84,0v.02s0,.75,0,.75v.77s.84,0,.84,0h.84s0,0,0,0v-.15s0-.62,0-.62v-.77s-.6,0-.6,0h-.05ZM27.63,40.87v-.02s0-1.54,0-1.54h-.62s-.21,0-.21,0h-.84s0,1.47,0,1.47c0,.81,0,1.5.01,1.54.01.06.11.07.85.07h.81s.02,0,.02,0h0s0-1.52,0-1.52ZM19.12,40.88v-1.53s-.82,0-.82,0h-.08s-.74,0-.74,0v1.54s.01,1.54.01,1.54h.82s.82-.03.82-.03v-1.53ZM14.03,40.91v-1.54s-.85,0-.85,0h-.81s-.03,0-.03,0h0s0,.25,0,.25l.02,1.27v.02s.02,1.51.02,1.51l1.65.02v-1.54ZM2.31,56.54v-1.53s0-.02,0-.02h.83s.83,0,.83,0v-.78s0-.78,0-.78h-.84s-.84,0-.84,0v.79s0,.75,0,.75v.05s-.84,0-.84,0h-.83s0,0,0,0h0s0,1.54,0,1.54v1.54s.85,0,.85,0h.84s0-.62,0-.62v-.94ZM2.24,46.43v-1.26s0-.52,0-.52v-1.13s0-.49,0-.49l-.02-3.61h-.84s-.08,0-.08,0h-.14s-.62,0-.62,0l.04,7,.04,7h.84s.84,0,.84,0l-.03-5.66v-1.34ZM29.29,38.92v-.43s0-.77,0-.77h-.84s-.09,0-.09,0h-.45s-.01,0-.01,0h-.29s0,0,0,0v.76c0,.06,0,.11,0,.16,0,.35.02.61.04.62.02,0,.4,0,.84,0l.8-.02v-.33ZM17.41,38.55v-.63s.01-.14.01-.14h0s0-.01,0-.01h0s-.04,0-.04,0h-.01s-.04,0-.04,0h-.03s-.11,0-.11,0h-.16s0,0,0,0h-.21s-.08,0-.08,0h-.05s-.41,0-.41,0h-.14s-.24,0-.24,0h-.15s-1.68,0-1.68,0v.77c0,.11,0,.21,0,.29v.03s0,.45,0,.45h1.57c.86,0,1.61,0,1.66,0,.09,0,.1-.03.11-.78ZM5.56,40.95v-1.54s-.84,0-.84,0h-.84s-.01-.78-.01-.78l-.02-.78h-.83s-.36-.01-.36-.01h-.01s-.21,0-.21,0h-.24s0,.03,0,.03h0s0,.09,0,.09l.02.66.02.78h.83s.63.01.63.01h.2s0,.39,0,.39v1.16s.01,1.54.01,1.54h.84s.84,0,.84,0v-1.54Z"/>
    </g>
    <path class="cls-1" d="M25.07,0l.16,1.58,1.56.03v1.36s1.64.08,1.64.08l.09,4.38,1.59-.11-.02,1.49,1.45-.07.13,4.57h-1.62s.07,1.31.07,1.31c-.38.23-1.45-.13-1.61.26l.08,5.67-1.61.04-.03,1.44-1.57.12.08,1.33-1.61.04-.03,1.44-3.06.07.09,1.34-9.67.18-.12-1.46-3.07.06.02-1.49-1.45.08-.12-1.46-1.63-.09.02-1.42-1.64-.09-.14-5.62-1.46-.13v-1.36s-1.46.08-1.46.08l-.13-4.52,1.43-.19.13-1.3,1.41.04-.09-4.45,1.76-.02-.12-1.46h1.62s-.12-1.45-.12-1.45l19.06-.28ZM14.27,7.5l-11.15.13.12,6.06h1.11s.17,1.19.17,1.19h8.33s-.12-1.46-.12-1.46h1.62s-.04-2.95-.04-2.95l2.98.08c.17.5-.19,2.68.29,2.85l1.27.02.02,1.29h8.15s.19-.14.19-.14l-.05-1.13,1.3-.1-.11-6.01-11.11.25.08,1.33-3.07.07.02-1.49ZM12.65,17.78c-.83.11-1.98-.1-2.76.01-.16.02-.3.01-.35.19l-.02,1.22,1.57.02.19,1.45,9.39-.1-.12-1.46,1.76-.02-.12-1.46-3.21.1.05,1.48-6.38.05.02-1.49Z"/>
    <path class="cls-1" d="M79.8,33.16l.16,1.58,1.56.03v1.36s1.64.08,1.64.08l.09,4.38,1.59-.11-.02,1.49,1.45-.07.13,4.57h-1.62s.07,1.31.07,1.31c-.38.23-1.45-.13-1.61.26l.08,5.67-1.61.04-.03,1.44-1.57.12.08,1.33-1.61.04-.03,1.44-3.06.07.09,1.34-9.67.18-.12-1.46-3.07.06.02-1.49-1.45.08-.12-1.46-1.63-.09.02-1.42-1.64-.09-.14-5.62-1.46-.13v-1.36s-1.46.08-1.46.08l-.13-4.52,1.43-.19.13-1.3,1.41.04-.09-4.45,1.76-.02-.12-1.46h1.62s-.12-1.45-.12-1.45l19.06-.28ZM68.99,40.65l-11.15.13.12,6.06h1.11s.17,1.19.17,1.19h8.33s-.12-1.46-.12-1.46h1.62s-.04-2.95-.04-2.95l2.98.08c.17.5-.19,2.68.29,2.85l1.27.02.02,1.29h8.15s.19-.14.19-.14l-.05-1.13,1.3-.1-.11-6.01-11.11.25.08,1.33-3.07.07.02-1.49ZM67.37,50.93c-.83.11-1.98-.1-2.76.01-.16.02-.3.01-.35.19l-.02,1.22,1.57.02.19,1.45,9.39-.1-.12-1.46,1.76-.02-.12-1.46-3.21.1.05,1.48-6.38.05.02-1.49Z"/>
  </g>
</svg>