<?xml version="1.0" encoding="utf-8"?>
<svg width="57.222" height="76.161" viewBox="0 0 57.222 76.161" fill="none" xmlns="http://www.w3.org/2000/svg">
  <g>
    <g transform="translate(4.005 34.816)">
      <path d="M4.45266 0C4.44872 1.50333 4.45463 3.016 4.45266 4.51933C4.44872 7.60067 4.45266 10.692 4.45266 13.7727L4.45266 18.292L2.33428 18.292C2.32509 16.7887 2.34019 15.2753 2.33559 13.772L0.00327921 13.774C-0.00393963 12.9873 0.0164051 12.1927 0.0045929 11.406C-0.00721979 10.6193 0.00787401 9.82534 0.0045929 9.03867C0.288093 8.95333 2.33494 9.15733 2.33494 9.03867L2.33494 4.51933C1.56056 4.51066 0.778968 4.53133 0.0045929 4.51933C0.015749 3.73267 -0.0032835 2.938 0.00327921 2.15133L2.33559 2.15333C2.34347 1.438 2.32247 0.715333 2.33428 0C3.03844 0 3.7485 0 4.45266 0Z" fill="#858585" fill-rule="evenodd" transform="translate(4.444 9.275)" />
      <path d="M2.11879 0C2.13126 0.715333 2.1096 1.438 2.11748 2.15333C2.89185 2.15667 3.6741 2.146 4.44848 2.152L4.44848 4.51933C3.6741 4.53133 2.89251 4.51066 2.11813 4.51933L2.11813 9.03867C2.11813 9.15733 4.16432 8.95333 4.44848 9.03867L4.44848 13.7733C3.6741 13.78 2.89185 13.7687 2.11748 13.772C2.11223 15.2753 2.12798 16.7887 2.11879 18.292L0.000415802 18.292L0.000415802 13.7727C0.000415802 10.6913 0.00435257 7.6 0.000415802 4.51933C-0.0015564 3.016 0.00435257 1.50333 0.000415802 0C0.704571 0 1.41463 0 2.11879 0Z" fill="#858585" fill-rule="evenodd" transform="translate(40.672 9.275)" />
      <path d="M18.2188 0.0215C18.2214 0.808833 18.2149 1.6015 18.2188 2.38883C12.1505 2.3715 6.06964 2.3715 0.000639915 2.38883C0.00457668 1.6015 -0.00198555 0.808833 0.000639915 0.0215C6.06833 -0.00716667 12.1511 -0.00716667 18.2188 0.0215Z" fill="#858585" fill-rule="evenodd" transform="translate(15.675 -0)" />
      <path d="M4.66069 0L4.66069 2.36733C3.11063 2.37467 1.55072 2.37467 0 2.36733L0 0C1.55072 0.00466537 3.10997 0.00466537 4.66069 0Z" fill="#8B8B8B" fill-rule="evenodd" transform="translate(22.454 38.972)" />
      <path d="M2.33034 0C2.33362 0.786667 2.31853 1.58067 2.33034 2.36733C3.10472 2.37933 3.88565 2.364 4.66068 2.36733C5.36484 2.37067 6.07491 2.364 6.77906 2.36733L6.77906 4.73467C6.07491 4.73133 5.36484 4.74533 4.66068 4.73467C3.88631 4.72267 3.10406 4.74333 2.32969 4.736C2.32247 3.94933 2.34215 3.15467 2.331 2.368C1.55662 2.356 0.774375 2.37667 0 2.36933L0.00130939 0.00133514C0.775028 0.0153351 1.55728 0.00133514 2.33165 0.00133514L2.33034 0Z" fill="#A5A5A4" fill-rule="evenodd" transform="translate(8.897 32.086)" />
      <path d="M6.77775 0.00141907L6.77907 2.36942C6.00469 2.37675 5.22244 2.35675 4.44807 2.36808C4.43625 3.15475 4.4566 3.94942 4.44938 4.73609C3.675 4.74342 2.89275 4.72275 2.11838 4.73475C1.41422 4.74542 0.704155 4.73142 0 4.73475L0 2.36742C0.704155 2.36409 1.41422 2.37075 2.11838 2.36742C2.89275 2.36409 3.67435 2.37942 4.44872 2.36742C4.46053 1.58075 4.44544 0.787418 4.44872 8.39233e-05C5.2231 -0.00125122 6.00469 0.0140839 6.77907 8.39233e-05L6.77775 0.00141907Z" fill="#A5A5A4" fill-rule="evenodd" transform="translate(33.895 32.085)" />
      <path d="M2.12151 0.00533295C2.89588 0.00533295 3.67747 -0.00666618 4.45185 0.00533295C4.45513 0.720667 4.45513 2.94467 4.45185 2.15733C3.67747 2.15733 6.00782 2.15733 6.78219 2.15733C6.78613 2.94467 6.77957 3.73733 6.78219 4.52466C6.00782 4.52133 5.22622 4.53666 4.45185 4.52466C4.44003 3.738 2.89588 2.17133 2.12151 2.15733C1.41735 2.14466 0.705973 2.16667 0.00181675 2.15867C-0.00605822 1.44333 0.0149431 0.720667 0.00313044 0.00533295L2.12151 0.00533295Z" fill="#B2B2B2" fill-rule="evenodd" transform="translate(6.775 29.929)" />
      <path d="M4.66069 0L6.77906 0C6.7666 0.715334 6.78825 1.438 6.78038 2.15333C6.07622 2.16133 5.36485 2.14 4.66069 2.152C3.88697 2.166 1.55531 2.15333 2.33035 2.152C2.33363 1.43666 2.34216 3.73266 2.33035 4.51933C1.55597 4.53133 0.775032 4.516 0 4.51933L0 2.152C0.775032 2.152 2.32706 0.715334 2.33035 0L4.66069 0Z" fill="#B2B2B2" fill-rule="evenodd" transform="translate(36.012 29.934)" />
      <path d="M4.4518 0.00232676L4.4518 2.36966C3.67743 2.37366 1.41731 2.38166 2.12146 2.36966C2.13328 1.58299 2.12474 3.80633 2.12146 4.52166L0.00308657 4.52166C0.0155554 3.80633 -0.00610209 3.08366 0.00177288 2.36833C0.705929 2.36033 2.11293 0.788328 2.12015 0.00166148C2.89452 -0.00567186 3.67678 0.0143274 4.45115 0.00299408L4.4518 0.00232676Z" fill="#DDDDDD" fill-rule="evenodd" transform="translate(6.775 0.019)" />
      <path d="M2.33034 0.00466571L2.33034 2.372C1.55531 2.376 0.775031 2.368 0 2.372L0 0.00466571C0.774375 -0.00733429 1.55597 0.00799904 2.33034 0.00466571Z" fill="#A5A5A4" fill-rule="evenodd" transform="translate(11.227 0.017)" />
      <path d="M2.33035 0.00466571L2.33035 2.372C1.55531 2.368 0.775032 2.376 0 2.372L0 0.00466571C0.774376 0.00799904 1.55597 -0.00733429 2.33035 0.00466571Z" fill="#A5A5A4" fill-rule="evenodd" transform="translate(36.012 0.017)" />
      <path d="M6.77906 0L6.77906 2.36733C5.22834 2.37067 8.19328 2.36934 8.89744 2.36733L8.89744 4.51933C8.19328 4.52267 7.48322 4.51733 6.77906 4.51933C6.77906 4.51933 1.41422 2.366 2.11837 2.36733L2.11837 4.51933C1.41422 4.51733 0.704157 4.52267 0 4.51933L0 2.36733C0.704157 2.36934 2.11837 0 2.11837 0C3.66909 0.0019989 5.22834 0.0019989 6.77906 0Z" fill="#C7C7C6" fill-rule="evenodd" transform="translate(20.336 34.454)" />
      <path d="M2.32969 0.00181961C2.31787 0.788483 2.33822 1.58315 2.331 2.36982C1.55663 2.37715 0.774376 2.35648 0 2.36848L0 0.00115585C0.775032 -0.00284576 1.55531 0.00515366 2.33035 0.00115585L2.32969 0.00181961Z" fill="#A5A5A4" fill-rule="evenodd" transform="translate(29.233 38.97)" />
      <path d="M2.33259 0.000488281L2.33259 2.36782C1.55822 2.35582 0.775969 2.37649 0.00159264 2.36916C-0.00562668 1.58249 0.014719 0.787823 0.0029068 0.00115585C0.777939 0.00515366 1.55822 -0.00284576 2.33325 0.00115585L2.33259 0.000488281Z" fill="#A5A5A4" fill-rule="evenodd" transform="translate(18.003 38.972)" />
      <path d="M2.11838 0.00096225C2.11575 0.788296 2.12231 1.58096 2.11838 2.3683C1.41422 2.3703 0.704156 2.36496 0 2.3683L0 0.00096225C0.704156 -0.00237108 1.41422 0.00429558 2.11838 0.00096225Z" fill="#8B8B8B" fill-rule="evenodd" transform="translate(13.557 0.021)" />
      <path d="M2.11966 0.00096225L2.11966 2.3683C1.4155 2.36496 0.705448 2.3703 0.00129318 2.3683C-0.00264359 1.58096 0.00391769 0.788296 0.00129318 0.00096225C0.705448 0.00429558 1.4155 -0.00237108 2.11966 0.00096225Z" fill="#8B8B8B" fill-rule="evenodd" transform="translate(33.892 0.021)" />
      <path d="M2.12016 0C2.11622 0.787333 2.12212 1.58 2.12016 2.36733C1.416 2.36733 0.705935 2.36733 0.0017786 2.36733C0.0155597 1.58067 -0.00609636 0.786667 0.0017786 0L2.12016 0Z" fill="#8B8B8B" fill-rule="evenodd" transform="translate(6.777 6.908)" />
      <path d="M2.33034 0.00115585L2.33034 2.15315C1.55597 2.16715 0.774374 2.14915 0 2.15315C0.0105 1.43782 0 0.716488 0 0.00115585C0.77503 -0.00284576 1.55531 0.00515366 2.33034 0.00115585Z" fill="#8B8B8B" fill-rule="evenodd" transform="translate(31.563 36.819)" />
      <path d="M2.12308 0C2.11915 0.787333 2.12702 1.58 2.12308 2.36733L0.00470734 2.36733C0.0125823 1.58067 -0.00907421 0.786667 0.00470734 0L2.12308 0Z" fill="#A5A5A4" fill-rule="evenodd" transform="translate(6.774 4.541)" />
      <path d="M2.11951 0C2.13329 0.786667 2.11164 1.58067 2.11951 2.36733L0.00113678 2.36733C-0.00279999 1.58 0.00507355 0.787333 0.00113678 0L2.11951 0Z" fill="#A5A5A4" fill-rule="evenodd" transform="translate(40.671 4.541)" />
      <path d="M2.33501 0.000419617L2.33501 2.15242C1.55998 2.14842 0.779697 2.15642 0.00466728 2.15242C-0.00583267 1.43708 0.00466728 0.715755 0.00466728 0.000419617C0.779697 0.00442123 1.55998 -0.00157928 2.33501 0.000419617Z" fill="#A5A5A4" fill-rule="evenodd" transform="translate(18.001 36.82)" />
      <path d="M2.11837 0.000461578L2.11837 2.3678C1.41422 2.36446 0.704157 2.37846 0 2.3678L0 0.000461578C0.704157 0.00379562 1.41422 -0.00153732 2.11837 0.000461578Z" fill="#A5A5A4" fill-rule="evenodd" transform="translate(20.336 38.972)" />
      <path d="M2.11879 0C2.12667 0.786667 2.10501 1.58067 2.11879 2.36733C1.41463 2.36733 0.704571 2.36733 0.000415802 2.36733C-0.0015564 1.58 0.00435257 0.787333 0.000415802 0L2.11879 0Z" fill="#8B8B8B" fill-rule="evenodd" transform="translate(40.672 6.908)" />
      <path d="M2.11838 0C2.11378 0.786667 2.13216 1.58067 2.11838 2.36733L0 2.36733L0 0L2.11838 0Z" fill="#8B8B8B" fill-rule="evenodd" transform="translate(40.672 27.567)" />
      <path d="M2.33035 0.000419617C2.33035 0.715755 2.34085 1.43708 2.33035 2.15242C1.55531 2.15642 0.775032 2.14842 0 2.15242L0 0.000419617C0.775032 -0.00157928 1.55531 0.00442123 2.33035 0.000419617Z" fill="#A5A5A4" fill-rule="evenodd" transform="translate(29.233 36.82)" />
      <path d="M2.11838 0.000461578L2.11838 2.3678C1.41422 2.37846 0.704157 2.36446 0 2.3678L0 0.000461578C0.704157 -0.00153732 1.41422 0.00379562 2.11838 0.000461578Z" fill="#A5A5A4" fill-rule="evenodd" transform="translate(27.115 38.972)" />
      <path d="M2.1236 0L2.1236 2.36733L0.00522375 2.36733C-0.0085578 1.58067 0.0098176 0.786667 0.00522375 0L2.1236 0Z" fill="#8B8B8B" fill-rule="evenodd" transform="translate(6.773 27.567)" />
      <path d="M2.33035 0.00115585C2.33035 0.716488 2.31984 1.43782 2.33035 2.15315C1.55597 2.14915 0.774376 2.16715 0 2.15315L0 0.00115585C0.775032 0.00515366 1.55531 -0.00284576 2.33035 0.00115585Z" fill="#8B8B8B" fill-rule="evenodd" transform="translate(15.676 36.819)" />
      <path d="M2.11969 0.000526428L2.11969 2.15252C1.41553 2.13986 0.704156 2.16186 0 2.15386L0.00130939 0.000526428C0.705466 0.0111923 1.41553 -0.00280762 2.11969 0.000526428Z" fill="#A5A5A4" fill-rule="evenodd" transform="translate(13.556 36.82)" />
      <path d="M2.11837 0.000526428L2.11968 2.15386C1.41553 2.16186 0.704155 2.14053 0 2.15252L0 0.000526428C0.704155 -0.00280762 1.41421 0.0111923 2.11837 0.000526428Z" fill="#A5A5A4" fill-rule="evenodd" transform="translate(33.893 36.82)" />
      <path d="M24.9973 0.013C25.0006 0.728333 24.9947 1.45033 24.996 2.16633C25.7001 2.17433 26.4115 2.153 27.1157 2.165C27.89 2.179 28.6716 2.16367 29.446 2.165C29.446 2.95167 29.4342 3.74567 29.446 4.53233C29.4578 5.319 29.4375 6.11367 29.4447 6.90033C30.2197 6.899 31.0013 6.89967 31.7757 6.899C31.7796 8.40233 31.7737 9.915 31.7757 11.4183L29.4454 11.4183C29.4335 10.6317 29.4539 9.837 29.4467 9.05033C28.6723 9.04367 27.89 9.06233 27.1157 9.05167C25.6391 9.03033 24.1435 9.03033 22.667 9.05167C21.8926 9.063 21.1103 9.04367 20.336 9.05033C20.3287 9.837 20.3484 10.6317 20.3373 11.4183C19.6338 11.431 18.9224 11.409 18.2189 11.4183L18.2189 15.7223L13.5582 15.7223L13.5582 11.4183C12.8547 11.409 12.1433 11.431 11.4398 11.4183C11.428 10.6317 11.4484 9.837 11.4411 9.05033C10.6668 9.04367 9.88452 9.06233 9.11014 9.05167C7.63358 9.03033 6.13798 9.03033 4.66142 9.05167C3.88704 9.063 3.1048 9.04367 2.33042 9.05033C2.3232 9.837 2.34289 10.6317 2.33173 11.4183L0.00138664 11.4183C0.00335503 9.915 -0.00255108 8.40233 0.00138664 6.899C0.776418 6.899 1.55801 6.899 2.33239 6.90033C2.33961 6.11367 2.31992 5.319 2.33107 4.53233C2.34289 3.74567 2.33107 2.95167 2.33107 2.165C3.10545 2.16367 3.88704 2.179 4.66142 2.165C5.36558 2.15233 6.07695 2.17433 6.78111 2.16633C6.78242 1.451 6.77651 0.729 6.7798 0.013C12.8481 -0.00433326 18.929 -0.00433326 24.998 0.013L24.9973 0.013Z" fill="#EDEDED" fill-rule="evenodd" transform="translate(8.896 2.376)" />
      <path d="M2.33209 0C2.32028 0.786667 2.33537 1.58 2.33209 2.36733C2.32881 3.08267 2.33537 3.804 2.33209 4.51934C2.32815 5.30667 2.33406 6.09933 2.33209 6.88667C2.33012 7.674 2.3334 8.46667 2.33209 9.254L0.00174999 9.254C0.00174999 6.17267 -0.00218773 3.08134 0.00174999 0.000667572L2.33209 0.000667572L2.33209 0Z" fill="#E6E6E6" fill-rule="evenodd" transform="translate(8.895 13.794)" />
      <g transform="translate(42.79 11.425)">
        <path d="M0 0.00196312C0.774375 0.00862978 1.55663 -0.00270485 2.331 0.00062848C2.33756 0.787295 2.31919 1.58196 2.32969 2.36863C3.03319 2.38129 3.74456 2.35929 4.44806 2.36863L4.44806 9.25463C3.74456 9.26463 3.03319 9.24063 2.32969 9.25463C2.31853 10.0413 2.33756 10.836 2.331 11.6226C1.55663 11.626 0.774375 11.6153 0 11.6213L0 9.25396C0.774375 9.24329 1.55597 9.2693 2.33034 9.25396C2.36184 6.9673 2.36184 4.65463 2.33034 2.36796C1.55794 2.35396 0.773062 2.35596 0 2.36796L0 0.00062848L0 0.00196312Z" fill="#633EA7" fill-rule="evenodd" transform="translate(2.33 -0)" />
        <path d="M2.33034 0.00976443C2.36184 2.29643 2.36184 4.6091 2.33034 6.89577C1.55597 6.9111 0.774375 6.8851 0 6.89577L0 0.00976443C0.773062 -0.00223565 1.55728 -0.00423551 2.33034 0.00976443Z" fill="#633EA7" fill-rule="evenodd" transform="translate(2.33 2.36)" />
        <path d="M2.33034 0.00219083L2.33034 4.52153C2.04684 4.43619 0 4.64019 0 4.52153L0 0.00219083C0.774375 -0.00647569 1.55597 0.0141909 2.33034 0.00219083Z" fill="#70599B" fill-rule="evenodd" transform="translate(-0 2.367)" />
      </g>
      <g transform="translate(0.001 11.426)">
        <path d="M4.44806 0.00196118C3.67369 0.00862785 2.89143 -0.00270475 2.11706 0.000628579C2.1105 0.787295 2.12887 1.58196 2.11837 2.36863C1.41487 2.38129 0.7035 2.35929 0 2.36863L0 9.25463C0.7035 9.26463 1.41487 9.24063 2.11837 9.25463C2.12953 10.0413 2.1105 10.836 2.11706 11.6226C2.89143 11.626 3.67369 11.6153 4.44806 11.6213L4.44806 9.25396C3.67369 9.24329 2.89209 9.2693 2.11772 9.25396C2.08622 6.9673 2.08622 4.65463 2.11772 2.36796C2.89012 2.35396 3.675 2.35596 4.44806 2.36796L4.44806 0.000628579L4.44806 0.00196118Z" fill="#633EA7" fill-rule="evenodd" transform="translate(0 0)" />
        <path d="M0.0236249 0.00976443C-0.00787497 2.29643 -0.00787497 4.6091 0.0236249 6.89577C0.798 6.9111 1.57959 6.8851 2.35397 6.89577L2.35397 0.00976443C1.58091 -0.00223565 0.796688 -0.00423551 0.0236249 0.00976443Z" fill="#633EA7" fill-rule="evenodd" transform="translate(2.094 2.359)" />
        <path d="M0 0.00219083L0 4.52153C0.2835 4.43619 2.33034 4.64019 2.33034 4.52153L2.33034 0.00219083C1.55597 -0.00647569 0.774375 0.0141909 0 0.00219083Z" fill="#70599B" fill-rule="evenodd" transform="translate(4.448 2.366)" />
      </g>
      <g transform="translate(29.228 11.411)">
        <path d="M2.33494 0.00542331L2.33494 2.37276C1.56056 2.37276 0.779624 2.37276 0.0045928 2.37276C0.00787405 1.58609 -0.0072197 0.79209 0.0045928 0.00542331C0.778968 -0.00857663 1.56056 0.00942349 2.33494 0.00542331Z" fill="#1C1C1C" fill-rule="evenodd" transform="translate(-0 2.378)" />
        <path d="M4.44871 0.016L4.44871 2.38333C3.74456 2.38333 6.77906 2.38333 6.77906 2.38333C6.79087 3.17 6.77578 3.96333 6.77906 4.75067L4.44871 4.75067C4.44871 4.75067 3.03516 2.38333 2.33034 2.38333C1.55531 2.38333 0.775031 2.37933 0 2.38333L0 0.016C1.47656 -0.00533333 2.97215 -0.00533333 4.44871 0.016Z" fill="#1C1C1C" fill-rule="evenodd" transform="translate(2.335 0)" />
        <path d="M2.32969 0.00244498L2.33099 2.37045C1.55596 2.36911 0.774375 2.36978 0 2.36911L0 0.00177789C0.775031 -0.0022223 1.55531 0.00177789 2.33034 0.00177789L2.32969 0.00244498Z" fill="#A5A5A4" fill-rule="evenodd" transform="translate(2.336 2.381)" />
        <path d="M2.33325 0.00214576L2.33325 2.36948C1.55888 2.37348 0.777282 2.35548 0.00290672 2.36948C0.0147192 1.58281 -0.00562581 0.788145 0.00159294 0.00147844C0.775968 -0.00518823 1.55822 0.0134777 2.33259 0.00281104L2.33325 0.00214576Z" fill="#A5A5A4" fill-rule="evenodd" transform="translate(0.002 0.014)" />
        <path d="M0.000657082 0.00277167C0.775032 0.014105 1.55728 -0.00522964 2.33166 0.00143703C2.33888 0.788104 2.31919 1.58277 2.33034 2.36944L0 2.36944L0 0.00210435L0.000657082 0.00277167Z" fill="#A5A5A4" fill-rule="evenodd" transform="translate(6.783 0.013)" />
        <path d="M2.33209 0C2.33603 0.787333 2.33013 1.58 2.33209 2.36733L0.00174999 2.36733C-0.00218773 1.58 0.00174999 0.787333 0.00174999 0L2.33209 0Z" fill="#A5A5A4" fill-rule="evenodd" transform="translate(6.782 6.903)" />
        <path d="M2.33034 0C2.33363 0.715333 2.32706 1.43667 2.33034 2.152L0 2.152C0 1.436 0 0.716 0 0L2.33034 0Z" fill="#464646" fill-rule="evenodd" transform="translate(6.784 4.751)" />
        <path d="M2.3328 0C2.3328 0.715333 2.33477 1.43667 2.3328 2.152C1.55843 2.156 0.776836 2.138 0.00246094 2.152C-0.000820312 1.43667 -0.000820312 0.715333 0.00246094 0C0.776836 0 1.55777 0 2.3328 0Z" fill="#464646" fill-rule="evenodd" transform="translate(0.002 4.751)" />
        <path d="M4.44871 0L4.44871 2.36733C4.44871 3.08333 4.44871 3.80334 4.44871 4.51934C2.96887 4.51934 1.47984 4.512 0 4.51934C0.00196886 3.804 0 3.08267 0 2.36733C0.775031 2.36733 1.55663 2.36734 2.331 2.36867L2.32969 0.000667334C3.03384 0.000667334 3.74324 0.000667334 4.44806 0.000667334L4.44871 0Z" fill="#000000" fill-rule="evenodd" transform="translate(2.335 2.383)" />
        <path d="M4.44913 0.00325918C4.44913 0.790593 4.44519 1.58326 4.44913 2.37059L0.000414133 2.37059C0.00435162 1.58326 -0.00155449 0.790593 0.000414133 0.00325918C1.48026 -0.0040741 2.96928 0.00325918 4.44913 0.00325918Z" fill="#585858" fill-rule="evenodd" transform="translate(2.335 6.899)" />
        <path d="M2.33494 0.00542355C2.33297 0.792757 2.33887 1.58542 2.33494 2.37275L0.0045928 2.37275C-0.00721969 1.58609 0.00787405 0.792757 0.0045928 0.00542355C0.778968 -0.00857639 1.56056 0.00942326 2.33494 0.00542355Z" fill="#A5A5A4" fill-rule="evenodd" transform="translate(-0 6.897)" />
      </g>
      <g transform="translate(11.223 11.411)">
        <path d="M2.33494 0C2.33494 0.786667 2.33494 1.58067 2.33494 2.36733C1.55991 2.37133 0.779624 2.36467 0.0045928 2.36733C0.00787405 1.58067 -0.0072197 0.786667 0.0045928 0L2.33494 0Z" fill="#1C1C1C" fill-rule="evenodd" transform="translate(0 2.383)" />
        <path d="M4.44872 0.016L4.44872 2.38333C3.67369 2.37933 6.00469 2.36933 6.77906 2.38333C6.79087 3.17 6.77578 3.96333 6.77906 4.75067L4.44872 4.75067C4.44872 4.75067 2.89341 2.38333 2.11838 2.38333L0 2.38333L0 0.016C1.47656 -0.00533333 2.97216 -0.00533333 4.44872 0.016Z" fill="#1C1C1C" fill-rule="evenodd" transform="translate(2.335 0)" />
        <path d="M0.000657082 0.00277167C0.775032 0.014105 1.55728 -0.00522964 2.33165 0.00143703C2.33887 0.788104 2.31919 1.58277 2.33034 2.36944C1.55597 2.35544 0.774375 2.37344 0 2.36944L0 0.00210435L0.000657082 0.00277167Z" fill="#A5A5A4" fill-rule="evenodd" transform="translate(6.783 0.013)" />
        <path d="M2.11838 0.000667334L2.11969 2.36867C1.41553 2.37 0.704813 2.364 0 2.36733C0 1.58067 0 0.786667 0 0L2.11838 0L2.11838 0.000667334Z" fill="#A5A5A4" fill-rule="evenodd" transform="translate(2.335 2.383)" />
        <path d="M2.33325 0.00214576L2.33325 2.36948L0.00290298 2.36948C0.0147155 1.58281 -0.00562554 0.788145 0.00159321 0.00147844C0.775968 -0.00518823 1.55822 0.0134777 2.33259 0.00281104L2.33325 0.00214576Z" fill="#A5A5A4" fill-rule="evenodd" transform="translate(0.002 0.014)" />
        <path d="M2.33173 0C2.33501 0.786666 2.31992 1.58066 2.33173 2.36733L0.0013864 2.36733C0.00335515 1.58 -0.0025511 0.787333 0.0013864 0L2.33173 0Z" fill="#A5A5A4" fill-rule="evenodd" transform="translate(0.003 6.903)" />
        <path d="M2.33129 0.000649929C2.33129 0.715983 2.32801 1.43732 2.33129 2.15265L0.000947216 2.15265C0.00422847 1.43732 -0.00233403 0.715983 0.000947216 0.000649929C0.775979 -0.00201702 1.55626 0.00464964 2.33129 0.000649929Z" fill="#464646" fill-rule="evenodd" transform="translate(0.004 4.75)" />
        <path d="M2.33034 0C2.33363 0.715333 2.33363 1.43667 2.33034 2.152C1.55597 2.138 0.774375 2.156 0 2.152C0 1.43667 0 0.715333 0 0L2.33034 0Z" fill="#464646" fill-rule="evenodd" transform="translate(6.783 4.751)" />
        <path d="M4.45018 0.00111055L4.45018 2.36844C4.45018 3.08378 4.45018 3.80511 4.45018 4.52045C2.97034 4.51311 1.4813 4.52045 0.00145841 4.52045C-0.00182295 3.80511 0.00145841 3.08378 0.00145841 2.36844C0.705615 2.36511 1.41633 2.37111 2.12114 2.36978L2.11983 0.00177789C2.89487 0.00177789 3.67515 -0.0022223 4.45018 0.00177789L4.45018 0.00111055Z" fill="#000000" fill-rule="evenodd" transform="translate(2.333 2.382)" />
        <path d="M4.45331 0.00325918C4.45331 0.790593 4.44938 1.58326 4.45331 2.37059L0.0045929 2.37059C-0.00721979 1.58392 0.00787401 0.790593 0.0045929 0.00325918C1.48444 0.00325918 2.97347 -0.0040741 4.45331 0.00325918Z" fill="#585858" fill-rule="evenodd" transform="translate(2.33 6.899)" />
        <path d="M2.3321 0.00542355C2.32881 0.79209 2.34391 1.58609 2.3321 2.37275L0.00174999 2.37275C-0.00218773 1.58542 0.00174999 0.792757 0.00174999 0.00542355C0.776125 0.00942326 1.55772 -0.00857639 2.3321 0.00542355Z" fill="#A5A5A4" fill-rule="evenodd" transform="translate(6.781 6.897)" />
      </g>
      <g transform="translate(-0 13.785)">
        <path d="M2.33034 0.00909706C2.30934 1.5111 2.32378 3.02643 2.33034 4.52843C2.33363 5.3151 2.31853 6.1091 2.33034 6.89576C1.55531 6.8931 0.775031 6.89976 0 6.89576L0 0.00976438C0.772406 -0.00423562 1.55728 -0.00223562 2.33034 0.00976438L2.33034 0.00909706Z" fill="#633EA7" fill-rule="evenodd" transform="translate(2.118 0)" />
        <path d="M2.11837 0.00238074L2.11837 6.88838C1.41422 6.88438 0.7035 6.89105 0 6.88838L0 0.00238074C0.7035 -0.0069526 1.41487 0.0150474 2.11837 0.00238074Z" fill="#633EA7" fill-rule="evenodd" transform="translate(0 0.007)" />
        <path d="M0.0109692 0.00219094C0.785344 0.0141909 1.56694 -0.00647573 2.34131 0.00219094L2.34131 4.52153C2.34131 4.64019 0.295125 4.43619 0.0109692 4.52153C0.00440693 3.01953 -0.0100307 1.50419 0.0109692 0.00219094Z" fill="#70599B" fill-rule="evenodd" transform="translate(4.438 0.007)" />
      </g>
      <path d="M2.33034 0C2.32772 1.50333 2.3264 3.016 2.33034 4.51933L0 4.51933L0 0L2.33034 0Z" fill="#EDEDED" fill-rule="evenodd" transform="translate(8.897 23.048)" />
      <path d="M2.33129 0.000667572C2.33523 3.082 2.33129 6.17334 2.33129 9.254L0.000946045 9.254C-0.000366211 8.46667 0.00291443 7.674 0.000946045 6.88667C-0.00102234 6.09934 0.00488281 5.30667 0.000946045 4.51934C-0.00233459 3.804 0.00422668 3.08267 0.000946045 2.36733C-0.00233459 1.58067 0.0127602 0.786667 0.000946045 0L2.33129 0L2.33129 0.000667572Z" fill="#E6E6E6" fill-rule="evenodd" transform="translate(38.341 13.794)" />
      <path d="M2.33067 0L2.33067 4.51933C1.55629 4.51933 0.774696 4.50734 0.000320435 4.51933C0.00228882 3.732 -0.000991821 2.93933 0.000320435 2.152C0.00163269 1.43667 0.00163269 0.715334 0.000320435 0L2.33067 0Z" fill="#EDEDED" fill-rule="evenodd" transform="translate(38.342 23.048)" />
      <path d="M4.66069 0L4.66069 2.152C3.10997 2.15667 1.55072 2.15667 0 2.152L0 0C1.55072 0.00333405 3.10997 0.00333405 4.66069 0Z" fill="#E6E6E6" fill-rule="evenodd" transform="translate(22.454 36.82)" />
      <path d="M2.33035 0.000419617L2.33035 2.36776C1.55531 2.36375 0.775032 2.37175 0 2.36776L0 0.000419617C0.775032 0.00442123 1.55531 -0.00157928 2.33035 0.000419617Z" fill="#D6D6D6" fill-rule="evenodd" transform="translate(15.676 34.453)" />
      <path d="M2.11902 0C2.11902 0.787334 2.11902 1.58 2.11902 2.36733C1.41486 2.364 0.704796 2.37067 0.000639915 2.36733C-0.00198555 1.58 0.00457668 0.787334 0.000639915 0L2.11902 0Z" fill="#EDEDED" fill-rule="evenodd" transform="translate(13.557 32.086)" />
      <path d="M2.33034 0.000419617L2.33034 2.36776C1.55531 2.37175 0.77503 2.36375 0 2.36776L0 0.000419617C0.77503 -0.00157928 1.55531 0.00442123 2.33034 0.000419617Z" fill="#D6D6D6" fill-rule="evenodd" transform="translate(31.563 34.453)" />
      <path d="M2.11837 0L2.11837 2.36733C1.41421 2.37067 0.704155 2.364 0 2.36733C0 1.58067 0 0.786667 0 0L2.11837 0Z" fill="#EDEDED" fill-rule="evenodd" transform="translate(33.893 32.086)" />
      <path d="M2.331 0C2.33297 0.787333 2.32706 1.58 2.331 2.36733C3.10537 2.37933 3.88762 2.35867 4.662 2.366C4.66331 3.08133 4.6574 3.80333 4.66068 4.51933C3.88631 4.51933 3.10472 4.51933 2.33034 4.51933C2.32706 3.804 2.33363 3.08267 2.33034 2.36733C1.55597 2.35533 0.774375 2.36733 0 2.36733L0 0L2.33034 0L2.331 0Z" fill="#E6E6E6" fill-rule="evenodd" transform="translate(8.896 27.567)" />
      <path d="M4.66536 0.00533295L4.66536 2.37267L2.33501 2.37267C2.33895 1.58533 2.33829 3.80933 2.33501 4.52466C1.55998 4.526 0.779697 4.52466 0.00466537 4.52466C0.00466537 3.80933 -0.00583267 3.088 0.00466537 2.37267C0.00466537 2.37267 2.33304 0.792667 2.33501 0.00533295C3.10939 -0.00666618 3.89098 0.00533295 4.66536 0.00533295Z" fill="#E6E6E6" fill-rule="evenodd" transform="translate(36.007 27.562)" />
      <path d="M2.33436 0.00542331C2.33436 0.720757 2.33436 1.44209 2.33436 2.15742C1.55933 2.15876 0.779049 2.15742 0.00401783 2.15742C0.00729942 1.44209 -0.00648212 0.720757 0.00401783 0.00542331C0.778393 -0.00857663 1.55998 0.00942349 2.33436 0.00542331Z" fill="#8B8B8B" fill-rule="evenodd" transform="translate(8.893 2.383)" />
      <path d="M4.66182 0.00115466L4.66182 2.15315C3.88745 2.16715 1.55645 2.15449 2.33148 2.15315C2.33148 1.43782 2.34329 3.73382 2.33148 4.52049L0.00113678 4.52049C0.0050745 3.73315 -0.00280094 2.94049 0.00113678 2.15315C0.776168 2.15315 2.33148 0.716488 2.33148 0.00115466C3.10651 -0.00284529 3.88679 0.00515461 4.66182 0.00115466Z" fill="#C7C7C6" fill-rule="evenodd" transform="translate(8.896 2.388)" />
      <path d="M2.33035 0.00115466C2.33035 0.716488 2.33035 2.93982 2.33035 2.15315C1.55597 2.15182 3.88566 2.15315 4.66069 2.15315C4.66463 2.94049 4.65675 3.73315 4.66069 4.52049L2.33035 4.52049C2.31853 3.73382 0.774376 2.16715 0 2.15315L0 0.00115466C0.775032 0.00515461 1.55531 -0.00284529 2.33035 0.00115466Z" fill="#C7C7C6" fill-rule="evenodd" transform="translate(36.012 2.388)" />
      <path d="M2.33035 0.00542331C2.34084 0.720757 2.32706 1.44209 2.33035 2.15742C1.55531 2.15742 0.775032 2.15876 0 2.15742C0 1.44209 0 0.720757 0 0.00542331C0.774376 0.00942349 1.55597 -0.00857663 2.33035 0.00542331Z" fill="#8B8B8B" fill-rule="evenodd" transform="translate(38.342 2.383)" />
      <path d="M2.11838 0.0011251C2.1151 0.716458 2.121 1.43846 2.11969 2.15446C1.41553 2.16246 0.704156 2.14112 0 2.15312L0 0.0011251C0.704156 -0.00220823 1.41422 0.00312495 2.11838 0.0011251Z" fill="#E6E6E6" fill-rule="evenodd" transform="translate(13.557 2.388)" />
      <path d="M2.11988 0.0011251L2.11988 2.15313C1.41572 2.14046 0.70435 2.16246 0.00019455 2.15446C-0.00111771 1.43912 0.00478745 0.717125 0.00150681 0.0011251C0.705666 0.00312495 1.41572 -0.00220823 2.11988 0.0011251Z" fill="#E6E6E6" fill-rule="evenodd" transform="translate(33.892 2.388)" />
      <path d="M2.33107 0.000667095C2.31926 0.787334 2.33961 1.582 2.33239 2.36867C1.55736 2.36733 0.775762 2.368 0.00138664 2.36733C0.00335503 1.58 -0.00255108 0.787333 0.00138664 0L2.33173 0L2.33107 0.000667095Z" fill="#E6E6E6" fill-rule="evenodd" transform="translate(8.896 6.908)" />
      <path d="M2.33264 0C2.33657 0.787333 2.33067 1.58 2.33264 2.36733C1.55761 2.36733 0.776009 2.36733 0.00163651 2.36867C-0.00558472 1.582 0.0141068 0.787332 0.00294876 0.000665188L2.33329 0.000665188L2.33264 0Z" fill="#E6E6E6" fill-rule="evenodd" transform="translate(38.34 6.908)" />
      <path d="M0.000478745 0.00238037C0.703979 0.0150471 1.41535 -0.00695229 2.11885 0.00238037L2.11885 4.30638L6.77954 4.30638L6.77954 0.00238037C7.48304 -0.00695229 8.19442 0.0150471 8.89792 0.00238037C8.88611 0.789047 8.9012 1.58238 8.89792 2.36972C8.89464 3.08505 8.89464 3.80638 8.89792 4.52172C8.19442 4.53438 7.48304 4.51238 6.77954 4.52172L6.77954 9.25638L2.11885 9.25638L2.11885 4.52172C1.41535 4.51238 0.703979 4.53438 0.000478745 4.52172C0.00375938 3.80638 0.00375938 3.08505 0.000478745 2.36972C-0.0028019 1.58305 0.012291 0.789047 0.000478745 0.00238037Z" fill="#E6E6E6" fill-rule="evenodd" transform="translate(20.335 13.792)" />
      <path d="M2.33086 0.00133133C2.34267 0.787998 2.32233 1.58266 2.32955 2.36933C3.80939 2.352 5.29973 2.38933 6.77892 2.368C6.76317 1.582 6.78286 0.787334 6.77892 0.000667572L9.10927 0.000667572C9.09745 0.787334 9.1178 1.582 9.11058 2.36866C8.3362 2.37533 7.55396 2.35667 6.77958 2.36733C6.7927 3.01067 6.76973 3.662 6.77826 4.30533C11.2887 4.61466 15.8266 4.61466 20.3377 4.30533C20.3462 3.662 20.3239 3.01133 20.3364 2.36733C19.562 2.356 18.7798 2.37533 18.0054 2.36866C17.9982 1.582 18.0179 0.787334 18.0067 0.000667572L20.337 0.000667572C20.3331 0.787334 20.3528 1.58133 20.337 2.368C21.8156 2.38933 25.5601 2.368 24.7858 2.368C24.7982 3.08333 24.7897 0.787334 24.7858 0.000667572L27.1161 0.000667572C27.1181 0.788 27.1148 1.58066 27.1161 2.368C26.3417 2.368 24.7766 3.806 24.7844 4.52133L27.1154 4.52C27.1141 5.30733 27.1174 6.1 27.1154 6.88733C26.3411 6.89933 25.5588 6.87867 24.7844 6.886C24.7772 7.67266 24.7976 8.46733 24.7858 9.254C24.7753 9.96933 24.7858 10.6907 24.7858 11.406L22.6674 11.406C22.6674 10.6907 22.6707 9.96933 22.6674 9.254C22.6641 8.46733 22.6792 7.67333 22.6674 6.88667C22.6556 6.1 22.6759 5.30533 22.6687 4.51867L20.4598 4.516C20.236 4.55 20.343 6.498 20.3377 6.88667L6.78023 6.88667C6.76842 6.1 6.78876 5.30533 6.78155 4.51867L4.57261 4.516C4.34883 4.55 4.4558 6.498 4.45054 6.88667C4.43939 7.67333 4.45383 8.46667 4.45054 9.254C4.44726 9.96933 4.45054 10.6907 4.45054 11.406L2.33217 11.406C2.32889 10.6907 2.3348 9.96867 2.33349 9.25267C1.55911 9.24533 0.77686 9.266 0.00248528 9.254C-0.00145245 8.46667 0.00445366 7.674 0.00248528 6.88667C-0.00145245 5.38333 -0.00014019 3.87067 0.00248528 2.36733C0.00379753 1.58 0.000515938 0.787333 0.00248528 0L2.33283 0L2.33086 0.00133133Z" fill="#D6D6D6" fill-rule="evenodd" transform="translate(11.227 20.68)" />
      <path d="M2.33282 0C2.33413 0.715334 2.33413 1.43667 2.33282 2.152L0.0018158 2.15334C-0.00605774 1.438 0.0149422 0.715334 0.00313187 0C0.777504 0 1.5591 0 2.33347 0L2.33282 0Z" fill="#DDDDDD" fill-rule="evenodd" transform="translate(36.009 23.048)" />
      <path d="M2.33246 0C2.34493 0.715334 2.32327 1.438 2.33115 2.15333C3.10552 2.16067 3.88777 2.14 4.66215 2.152L4.66215 4.51933C3.88712 4.518 3.10684 4.52133 2.3318 4.51933C1.55677 4.51733 0.77649 4.52333 0.00145817 4.51933C0.00145817 3.732 0.00145817 2.93933 0.00145817 2.152C0.00145817 1.43666 -0.00182247 0.715334 0.00145817 0L2.3318 0L2.33246 0Z" fill="#DDDDDD" fill-rule="evenodd" transform="translate(15.674 29.934)" />
      <path d="M4.44872 0.000526428L4.44872 2.36786C3.74456 2.3672 1.55531 2.36653 2.33035 2.36786L2.33035 4.7352C1.55531 4.7332 0.775032 4.7392 0 4.7352L0 2.36786C0.775032 2.36986 2.33035 0.000526428 2.33035 0.000526428C3.0345 0.0111923 3.74456 -0.00280762 4.44872 0.000526428Z" fill="#E6E6E6" fill-rule="evenodd" transform="translate(18.006 32.086)" />
      <path d="M4.66069 0C4.66397 0.715334 4.66069 1.43666 4.66069 2.152C4.66069 2.93867 4.66069 3.73266 4.66069 4.51933C3.88566 4.52333 3.10538 4.51733 2.33035 4.51933C1.55531 4.52133 0.775032 4.518 0 4.51933L0 2.152C0.774376 2.14 1.55663 2.16067 2.331 2.15333C2.33888 1.438 2.31787 0.715334 2.32969 0L4.66003 0L4.66069 0Z" fill="#DDDDDD" fill-rule="evenodd" transform="translate(29.233 29.934)" />
      <path d="M2.11838 0.000526428L2.11838 2.36786C1.41422 2.36919 3.67369 2.36986 4.44872 2.36786L4.44872 4.7352C3.67369 4.7392 2.89341 4.7332 2.11838 4.7352C2.11838 4.7352 0.704813 2.3672 0 2.36786L0 0.000526428C0.704157 -0.00280762 1.41422 0.0111923 2.11838 0.000526428Z" fill="#E6E6E6" fill-rule="evenodd" transform="translate(27.115 32.086)" />
      <path d="M2.33324 0.00232887C2.33128 0.789661 2.33718 1.58233 2.33324 2.36966L0.00289917 2.36966C0.0147133 1.583 -0.00562668 0.788328 0.00159454 0.0016613C0.77597 -0.00567245 1.55821 0.0143299 2.33259 0.00299644L2.33324 0.00232887Z" fill="#DDDDDD" fill-rule="evenodd" transform="translate(36.009 27.565)" />
      <path d="M2.11837 0.000141144L2.11837 2.36747C1.41422 2.36614 0.704157 2.36947 0 2.36747L0 0.000141144C0.704157 0.00147247 1.41356 -0.000526428 2.11837 0.000141144Z" fill="#D6D6D6" fill-rule="evenodd" transform="translate(20.336 34.453)" />
      <path d="M2.11838 0.000141144L2.11838 2.36747C1.41422 2.36947 0.704157 2.36614 0 2.36747L0 0.000141144C0.704157 -0.000526428 1.41356 0.00147247 2.11838 0.000141144Z" fill="#D6D6D6" fill-rule="evenodd" transform="translate(27.115 34.453)" />
      <path d="M2.333 0.00238037C3.0365 0.0150471 3.74787 -0.00695229 4.45137 0.00238037L4.45137 4.73704L9.11206 4.73704L9.11206 0.00238037C9.81557 -0.00695229 10.5269 0.0150471 11.2304 0.00238037C11.2337 0.789047 11.2186 1.58304 11.2304 2.36971C11.2423 3.15638 11.2219 3.95105 11.2291 4.73771C12.0035 4.74438 12.7858 4.72571 13.5601 4.73638C13.547 5.37971 13.57 6.03104 13.5614 6.67438C9.05038 6.98371 4.51241 6.98371 0.0019989 6.67438C-0.00653267 6.03104 0.0157814 5.38038 0.00331306 4.73638C0.777689 4.72504 1.55993 4.74438 2.33431 4.73771C2.34153 3.95105 2.32184 3.15638 2.333 2.36971C2.34481 1.58304 2.32972 0.789715 2.333 0.00238037Z" fill="#DDDDDD" fill-rule="evenodd" transform="translate(18.003 18.311)" />
      <path d="M4.66069 0L4.66069 2.36733L0 2.36733L0 0L4.66069 0Z" fill="#C7C7C6" fill-rule="evenodd" transform="translate(22.454 27.567)" />
      <path d="M4.44925 0C4.45318 0.786667 4.43546 1.58067 4.44925 2.36733C2.97006 2.36733 1.47972 2.38867 0.000534058 2.36733C0.016283 1.58133 -0.00340462 0.786667 0.000534058 0L4.44925 0Z" fill="#C7C7C6" fill-rule="evenodd" transform="translate(31.562 20.681)" />
      <path d="M2.33389 0L2.33389 4.51933C1.55951 4.50733 0.777258 4.528 0.00288391 4.52067C-0.00499153 3.80533 0.0160103 3.08267 0.00419617 2.36733C-0.00958443 1.58067 0.0160103 0.786667 0.00419617 0L2.33454 0L2.33389 0Z" fill="#858585" fill-rule="evenodd" transform="translate(18.002 27.567)" />
      <path d="M2.32969 0C2.31853 0.786667 2.34347 1.58067 2.32969 2.36733C2.31722 3.08267 2.33888 3.80533 2.331 4.52067C1.55663 4.528 0.774376 4.50733 0 4.51933L0 0L2.33035 0L2.32969 0Z" fill="#858585" fill-rule="evenodd" transform="translate(29.233 27.567)" />
      <path d="M4.45097 0C4.45491 0.786667 4.43522 1.58067 4.45097 2.36733C2.97113 2.38867 1.48144 2.35134 0.00159264 2.36867C-0.00562572 1.582 0.014719 0.787334 0.0029068 0.000667572L4.45162 0.000667572L4.45097 0Z" fill="#C7C7C6" fill-rule="evenodd" transform="translate(13.555 20.681)" />
      <path d="M0.021019 2.37067C0.026269 1.98133 -0.0807009 0.0340004 0.14308 0L2.35202 0.00266457C2.35923 0.789331 2.33889 1.584 2.35071 2.37067L0.0203619 2.37067L0.021019 2.37067Z" fill="#C7C7C6" fill-rule="evenodd" transform="translate(15.655 25.196)" />
      <path d="M0.021019 2.37067C0.026268 1.98133 -0.0807018 0.0340004 0.14308 0L2.35202 0.00266457C2.35924 0.789331 2.33889 1.584 2.3507 2.37067L0.0203609 2.37067L0.021019 2.37067Z" fill="#C7C7C6" fill-rule="evenodd" transform="translate(31.542 25.196)" />
      <path d="M2.33465 0C2.34646 0.786667 2.32087 1.58067 2.33465 2.36733L0.00430489 2.36733C0.00758648 1.58067 -0.0068512 0.786667 0.00430489 0L2.33465 0Z" fill="#585858" fill-rule="evenodd" transform="translate(15.672 27.567)" />
      <path d="M2.33331 0C2.34512 0.786667 2.33003 1.58 2.33331 2.36733L0.00296402 2.36733C0.0167446 1.58067 -0.00819206 0.786667 0.00296402 0L2.33331 0Z" fill="#585858" fill-rule="evenodd" transform="translate(31.56 27.567)" />
      <path d="M0 0L2.11837 0L2.11837 2.36733L0 2.36733L0 0Z" fill="#B2B2B2" fill-rule="evenodd" transform="translate(20.336 27.567)" />
      <path d="M0 0L2.11838 0L2.11838 2.36733L0 2.36733L0 0Z" fill="#B2B2B2" fill-rule="evenodd" transform="translate(27.115 27.567)" />
      <path d="M4.66069 0L4.66069 2.36733C3.10997 2.36934 1.55072 2.36934 0 2.36733L0 0C1.55006 0.00733185 3.10997 0.00733185 4.66069 0Z" fill="#EDEDED" fill-rule="evenodd" transform="translate(22.454 32.086)" />
      <path d="M4.66069 0L4.66069 2.152C3.11063 2.15933 1.55072 2.15933 0 2.152L0 0L4.66069 0Z" fill="#000000" fill-rule="evenodd" transform="translate(22.454 29.934)" />
      <path d="M2.11837 0L2.11837 2.152C1.41422 2.14866 0.704157 2.16266 0 2.152L0 0L2.11837 0Z" fill="#1C1C1C" fill-rule="evenodd" transform="translate(20.336 29.934)" />
      <path d="M2.11838 0L2.11838 2.152C1.41422 2.16266 0.704157 2.14866 0 2.152L0 0L2.11838 0Z" fill="#1C1C1C" fill-rule="evenodd" transform="translate(27.115 29.934)" />
      <path d="M2.46489 0C2.48064 0.788 2.4557 1.58333 2.46489 2.372L0.00132751 2.372C-0.0032692 1.58333 0.00592041 0.788666 0.00132751 0L2.46489 0Z" fill="#858585" fill-rule="evenodd" transform="translate(45.004 20.686)" />
      <path d="M2.45505 0C2.4708 0.764668 2.44586 1.53666 2.45505 2.302L0.00132608 2.302C-0.00326777 1.53666 0.00591993 0.765333 0.00132608 0L2.45505 0Z" fill="#858585" fill-rule="evenodd" transform="translate(2.119 20.747)" />
    </g>
    <g transform="matrix(0.958 0.286 -0.286 0.958 11.947 0)">
      <path d="M32.1371 17.9199C32.1071 17.8819 32.1034 17.9209 32.1286 18.0073C32.1548 18.0936 32.1791 18.125 32.1838 18.0766C32.1875 18.0281 32.167 17.9579 32.1371 17.9199ZM32.1371 17.9199C32.1071 17.8819 32.1034 17.9209 32.1286 18.0073C32.1548 18.0936 32.1791 18.125 32.1838 18.0766C32.1875 18.0281 32.167 17.9579 32.1371 17.9199ZM47.2491 28.2014L46.58 25.9467L45.9109 23.6929L44.8324 24.0233L43.7531 24.3537L43.4372 23.2885L43.1214 22.2243L44.1998 21.8939L45.2791 21.5635L42.3055 11.5431L39.331 1.52276L38.2525 1.85313L37.1741 2.1835L36.8498 1.09175L36.5255 0L36.3498 0.0322779C36.2536 0.0503155 35.7405 0.206958 35.2097 0.380689L34.2435 0.695873L34.5687 1.78952L34.8929 2.88222L33.8136 3.2126L32.7351 3.54297L34.0547 7.98972L32.9454 8.32959L31.8352 8.66946L32.495 10.8928L33.1547 13.1162L31.0287 13.7675L28.9027 14.4178L28.2252 12.1944L27.5476 9.97101L26.4543 10.3147L25.3609 10.6583L24.7095 8.44636L24.0582 6.23533L21.8845 6.86379L21.5593 5.76919C21.3431 5.04073 21.1883 4.68947 21.0948 4.71542C21.0191 4.7382 20.0267 5.04104 18.8912 5.38946L16.8259 6.02172L17.1343 7.12297L17.4427 8.22421L16.368 8.57167L15.2933 8.91914L15.9307 11.115L16.568 13.3108L15.4793 13.663L14.3897 14.0162L15.0494 16.2377L15.7083 18.4591L11.4562 19.7617L10.7787 17.5383L10.1012 15.314L9.00966 15.6576L7.91721 16.0003L7.25651 13.7751L6.59675 11.5488L5.51925 11.8792L4.44175 12.2086L4.09878 11.115L3.75582 10.0213L2.65216 10.3451C2.04565 10.5235 1.54102 10.6849 1.53167 10.703C1.52139 10.7219 1.65877 11.2261 1.83539 11.8232L2.1578 12.9083L1.07843 13.2387L0 13.569L2.97363 23.5894L5.94819 33.6098L8.10505 32.9491L8.42092 34.0133L8.73772 35.0785L7.65836 35.4088L6.57992 35.7392L7.24904 37.9939L7.91815 40.2477L8.99565 39.9182L10.0731 39.5879L10.4152 40.6787L10.7572 41.7704L28.2345 36.417L45.7118 31.0646L45.4025 29.9634L45.0941 28.8612L46.1716 28.5317L47.2491 28.2014ZM28.328 20.6408L26.6991 15.1611L27.7635 14.8364C28.4738 14.62 28.8036 14.5412 28.7532 14.601C28.7036 14.6598 28.7046 14.6817 28.756 14.6665C28.8149 14.6494 28.9074 14.8934 29.1401 15.6776L29.4475 16.7114L30.5549 16.3715L31.6633 16.0317L32.0193 17.1699C32.2156 17.7955 32.8015 19.7683 33.3211 21.554L34.2668 24.7999L32.1109 25.4596L29.9559 26.1194L28.328 20.6408ZM34.0995 32.1611L31.9109 32.8313L31.2773 30.6336L30.6437 28.4368L32.7987 27.777L34.9527 27.1172L35.6209 29.3036L36.2882 31.4909L34.0995 32.1611ZM32.1838 18.0766C32.1875 18.0281 32.167 17.9579 32.1371 17.9199C32.1071 17.8819 32.1034 17.9209 32.1286 18.0073C32.1548 18.0936 32.1791 18.125 32.1838 18.0766ZM32.1371 17.9199C32.1071 17.8819 32.1034 17.9209 32.1286 18.0073C32.1548 18.0936 32.1791 18.125 32.1838 18.0766C32.1875 18.0281 32.167 17.9579 32.1371 17.9199ZM32.1371 17.9199C32.1071 17.8819 32.1034 17.9209 32.1286 18.0073C32.1548 18.0936 32.1791 18.125 32.1838 18.0766C32.1875 18.0281 32.167 17.9579 32.1371 17.9199ZM8.5153 35.0092C8.47045 35.0633 8.47045 35.0898 8.51437 35.0775C8.55455 35.0652 8.59661 35.0224 8.60782 34.9816C8.63212 34.8886 8.61062 34.8952 8.5153 35.0092Z" fill="#CE86FB" fill-rule="evenodd" />
      <path d="M5.64448 4.37365L3.45584 5.04389L1.2672 5.71413L0.633604 3.51639L0 1.3196L2.15499 0.659796L4.30906 0L4.97723 2.18635L5.64448 4.37365Z" fill="#F1CAFE" fill-rule="evenodd" transform="matrix(1 -0 0 1 30.644 27.117)" />
      <path d="M6.62197 6.9724C6.10239 5.18667 5.51645 3.21393 5.3202 2.5883L4.96415 1.45004L3.85581 1.7899L2.74841 2.12977L2.44095 1.09593C2.20826 0.311766 2.11574 0.0677824 2.05687 0.0848703C2.00547 0.10006 2.00453 0.0782251 2.05406 0.0193653C2.10453 -0.0404434 1.77465 0.038353 1.06441 0.254805L0 0.579482L1.62886 6.05913L3.25678 11.5378L5.41178 10.878L7.56771 10.2182L6.62197 6.9724ZM5.42953 3.42563C5.4043 3.33924 5.40804 3.30032 5.43795 3.33829C5.46785 3.37627 5.48841 3.44652 5.48467 3.49493C5.48 3.54335 5.4557 3.51202 5.42953 3.42563Z" fill="#F1CAFE" fill-rule="evenodd" transform="matrix(1 -0 0 1 26.699 14.582)" />
      <path d="M1.53634 10.7457C1.54102 10.7723 1.67746 11.2298 1.84006 11.7624C2.00267 12.295 2.12322 12.7725 2.10827 12.8229C2.08864 12.8884 1.77651 13.0137 1.04012 13.2529L0 13.5899L2.96429 23.579L5.92857 33.568L7.00887 33.2434L8.08917 32.9187L8.38821 33.8794C8.55269 34.4082 8.68726 34.8943 8.68726 34.9598C8.68726 35.068 8.58259 35.1117 7.61257 35.4088L6.53787 35.7383L7.20698 37.993L7.8761 40.2477L8.99004 39.9068L10.104 39.566L10.4096 40.6682L10.7152 41.7704L28.1822 36.4028L45.6492 31.0352L45.3268 29.9729L45.0044 28.9105L46.0856 28.545L47.1669 28.1795L46.5071 25.9562L45.8473 23.7328L44.7969 24.0356C44.0848 24.2407 43.725 24.3195 43.6811 24.2796C43.6447 24.2473 43.4877 23.7717 43.3316 23.222L43.0475 22.2243L44.1222 21.8825L45.1969 21.5407L42.2326 11.5517L39.2683 1.56263L38.1722 1.87971L37.076 2.19679L36.7629 1.0984L36.4498 0L35.3247 0.344614L34.1995 0.689228L34.5247 1.78478L34.85 2.88033L33.7715 3.2107L32.6931 3.54107L33.3529 5.76445L34.0126 7.98782L32.9342 8.3182L31.8558 8.64857L32.5155 10.8719L33.1753 13.0953L31.024 13.7542L28.8728 14.413L28.785 14.264C28.7373 14.1823 28.427 13.1931 28.0971 12.0662L27.4972 10.0175L26.4085 10.3327L25.3198 10.6479L24.66 8.42642L24.0002 6.20495L22.9218 6.53532L21.8434 6.86569L21.5182 5.77014L21.1929 4.67459L18.9735 5.35433L16.754 6.03406L17.0792 7.12961L17.4044 8.22516L16.326 8.55553L15.2476 8.88591L15.9073 11.1093L16.5671 13.3327L15.4887 13.663L14.4102 13.9934L15.0373 16.1418C15.3821 17.3228 15.6765 18.3253 15.6905 18.368C15.7111 18.4297 15.2634 18.5816 13.5458 19.0933L11.3749 19.7408L10.7039 17.5383L10.033 15.3358L8.95453 15.6662L7.8761 15.9965L7.21633 13.7732L6.55656 11.5498L5.47813 11.8802L4.3997 12.2105L4.07449 11.115L3.74928 10.0194L2.64001 10.3593C2.02977 10.5463 1.53354 10.721 1.53821 10.7476M20.4192 18.2047C22.0312 23.6701 23.3657 28.1492 23.3844 28.1596C23.4031 28.17 27.8243 26.8286 33.2099 25.1786L43.0017 22.1796L40.0468 12.2219L37.0919 2.2642L36.0134 2.59457L34.935 2.92494L35.5948 5.14832L36.2545 7.3717L35.1761 7.70207L34.0977 8.03244L34.7369 10.2454L35.3761 12.4583L34.2836 12.8115C33.2912 13.1323 33.1949 13.1741 33.2332 13.27C33.2566 13.3279 33.551 14.3133 33.8874 15.4592L34.4986 17.544L33.3893 17.8838L32.28 18.2237L31.9548 17.1282L31.6296 16.0326L30.5512 16.363L29.4728 16.6934L29.1475 15.5988L28.8223 14.5042L27.7233 14.8222L26.6244 15.1402L25.9534 12.9377L25.2824 10.7352L24.204 11.0656L23.1255 11.396L22.4658 9.17261L21.806 6.94924L19.6491 7.60998L17.4923 8.27073L20.4238 18.2066M7.97048 24.4714L10.2657 32.2057L11.3749 31.8659L12.4842 31.526L11.1787 27.1267C10.46 24.7068 9.40964 21.2322 8.84239 19.4047L7.81162 16.082L6.74253 16.4095L5.67345 16.737L7.96862 24.4714M11.5852 36.6515L12.2356 38.8436L13.3449 38.5037L14.4542 38.1638L13.8037 35.9718L13.1533 33.7797L12.044 34.1196L10.9348 34.4595L11.5852 36.6515ZM24.717 32.6301L25.3674 34.8221L35.149 31.8089L44.9306 28.7957L44.3007 26.6141L43.6708 24.4324L33.8678 27.4352L24.0647 30.438L24.7151 32.6301" fill="#8650FB" fill-rule="evenodd" transform="matrix(1 -0 0 1 0.04 0.001)" />
      <path d="M1.84567 11.7776L2.16901 12.8656L1.9223 12.9871C1.78679 13.0536 1.29804 13.2197 0.837328 13.3545L0 13.6004L2.94185 23.5695L5.88371 33.5386L6.99392 33.1987L8.10412 32.8589L8.42933 33.9544L8.75454 35.05L7.7219 35.3671C7.15372 35.5417 6.66123 35.7174 6.62665 35.7582C6.57712 35.8161 6.70982 36.3107 7.22941 38.0148L7.89479 40.1973L8.85453 39.9192C9.38254 39.7663 9.8769 39.623 9.95353 39.5993C10.0464 39.5714 10.2012 39.923 10.418 40.654L10.7432 41.7495L28.1897 36.4056L45.6361 31.0618L45.3109 29.9662L44.9857 28.8707L46.0632 28.5403C47.1295 28.2137 47.1407 28.209 47.1332 28.059C47.1286 27.9754 46.837 26.9663 46.4856 25.8147L45.8455 23.7223L44.7446 24.0404L43.6437 24.3584L43.34 23.2742L43.0363 22.1901L44.1054 21.8284L45.1745 21.4667L42.2289 11.5403L39.2833 1.61389L38.1937 1.90819C37.5946 2.06958 37.0956 2.19964 37.0853 2.19679C37.075 2.19395 36.9208 1.69839 36.7414 1.09555L36.4162 0L35.3378 0.330373L34.2593 0.660747L34.5827 1.74965C34.8686 2.71419 34.8957 2.8471 34.8135 2.91165C34.763 2.95153 34.2743 3.11671 33.7285 3.27905L32.7361 3.57335L33.3725 5.77584L34.0089 7.97833L32.9305 8.3087L31.852 8.63908L32.5118 10.8625L33.1716 13.0858L30.9829 13.7561L28.7943 14.4263L28.1345 12.2029L27.4748 9.97956L26.3963 10.3099L25.3179 10.6403L24.6675 8.44826L24.017 6.25621L23.0461 6.55241C22.5115 6.7157 22.0078 6.85145 21.9247 6.85335C21.7761 6.8581 21.7714 6.84576 21.4518 5.76919L21.1285 4.68029L18.9707 5.34104L16.8129 6.00178L17.1362 7.09069C17.3867 7.93371 17.4437 8.19288 17.3876 8.23655C17.3483 8.26788 16.8605 8.43307 16.3036 8.6049L15.2905 8.91629L15.926 11.1178L16.5615 13.3194L15.4831 13.6497L14.4046 13.9801L15.0644 16.2035L15.7242 18.4269L13.5355 19.0971L11.3469 19.7673L10.6871 17.544L10.0274 15.3206L8.94892 15.651L7.87049 15.9813L7.20325 13.7931L6.536 11.6048L5.4529 11.921L4.3698 12.2371L4.02309 11.1311L3.67639 10.0251L2.59889 10.3555L1.52139 10.6859L1.84473 11.7738M2.24564 12.9738C2.20079 13.0583 8.07235 32.7867 8.14804 32.8076C8.25084 32.8351 38.2778 23.7043 40.7692 22.8869L42.9905 22.1588L40.0374 12.2086L37.0844 2.2585L36.006 2.58888L34.9275 2.91925L35.5667 5.13218L36.2059 7.34511L35.1481 7.68783L34.0902 8.03054L34.7285 10.2416L35.3667 12.4526L34.2883 12.783L33.2099 13.1134L33.8491 15.3272L34.4883 17.5411L33.3902 17.8592L32.2922 18.1772L31.9716 17.0968L31.6511 16.0165L30.5587 16.3516L29.4662 16.6867L29.1195 15.5807C28.8279 14.6504 28.7578 14.4776 28.6775 14.4937C28.6251 14.5051 28.1308 14.6485 27.5794 14.8127L26.5767 15.1117L25.9412 12.9168L25.3057 10.7219L24.2217 11.0352L23.1377 11.3485L22.4667 9.14603L21.7957 6.94354L19.6388 7.60429L17.482 8.26503L18.1418 10.4884L18.8015 12.7118L17.7231 13.0422L16.6447 13.3725L17.2839 15.5855L17.9231 17.7984L16.8344 18.1506L15.7457 18.5028L16.0709 19.5974L16.3961 20.692L15.3186 21.0224L14.2411 21.3528L14.5504 22.4569L14.8597 23.5609L13.7635 23.897L12.6674 24.2321L12.016 22.0382L11.3646 19.8442L10.2666 20.1623L9.16853 20.4803L8.49755 18.2788L7.82657 16.0772L6.74066 16.3915L5.65475 16.7057L5.00433 14.4966L4.35391 12.2874L3.31473 12.6055C2.74281 12.7801 2.26247 12.9482 2.24658 12.9786M9.86007 34.7652L8.7695 35.1174L9.42366 37.3066L10.0778 39.4958L27.5215 34.1528L44.9652 28.8099L44.3166 26.6254L43.668 24.441L41.4822 25.0619C39.5235 25.6182 12.5505 33.8946 9.86007 34.7642" fill="#000000" fill-rule="evenodd" transform="matrix(1 -0 0 1 0.046 0.008)" />
      <path d="M1.82978 11.7833L2.17742 12.8912L3.24557 12.5827L4.31372 12.2741L4.96415 14.4643L5.61457 16.6544L6.693 16.3241L7.77143 15.9937L7.12101 13.8016L6.47058 11.6096L5.39309 11.94L4.31559 12.2703L3.96888 11.1643L3.62218 10.0584L2.55216 10.3669L1.48214 10.6764L1.82885 11.7843M17.1007 7.09069L17.4259 8.18624L19.4473 7.5777C20.5593 7.24258 21.5256 6.95398 21.5939 6.93689C21.7135 6.90557 21.706 6.85905 21.406 5.78818L21.093 4.67175L18.9342 5.33344L16.7755 5.99514L17.1007 7.09069ZM34.5453 1.74206C34.7238 2.34394 34.8939 2.83855 34.9219 2.84235C34.9499 2.84615 35.4359 2.69615 36.0003 2.51103L37.0264 2.17401L36.704 1.087L36.3816 0L35.3004 0.323728L34.2192 0.647456L34.5434 1.74206M2.95307 23.5505L5.908 33.5082L6.98644 33.1778L8.06487 32.8475L8.39943 33.9744L8.73398 35.1012L7.65555 35.4316L6.57712 35.762L7.22754 37.954L7.87797 40.1461L8.9564 39.8157L10.0348 39.4853L9.39562 37.2724L8.75641 35.0595L9.81989 34.7338L10.8834 34.4082L10.5535 33.2965L10.2236 32.1848L9.14517 32.5152L8.06674 32.8456L5.1118 22.8879L2.15686 12.9301L1.07843 13.2605L0 13.5909L2.95494 23.5486M15.884 11.1017L16.5475 13.2728L17.6156 12.9643L18.6838 12.6558L18.0324 10.4628L17.3811 8.26978L16.2998 8.6011L15.2186 8.93243L15.8821 11.1036M22.4723 9.10236L23.1237 11.2954L24.1703 10.9564L25.217 10.6175L24.5824 8.43781L23.9479 6.25811L22.8844 6.58374L21.8209 6.90936L22.4723 9.10236ZM33.3388 5.65907C33.6706 6.80968 33.964 7.79605 33.9921 7.85017C34.0369 7.93751 34.164 7.91093 35.1172 7.61948L36.1919 7.29005L35.5415 5.098L34.8911 2.90596L33.8136 3.23633L32.7361 3.5667L33.3388 5.65907ZM40.0038 12.2029L42.9587 22.1607L41.8803 22.491L40.8019 22.8214L41.1271 23.917L41.4523 25.0125L42.5307 24.6821L43.6092 24.3518L43.284 23.2562L44.0372 21.8303L45.1156 21.4999L42.1607 11.5422L39.2057 1.58446L38.1273 1.91484L37.0489 2.24521L40.0038 12.2029ZM8.50316 18.2304L9.15358 20.4224L10.232 20.092L11.3104 19.7617L10.66 17.5696L10.0096 15.3776L8.93117 15.7079L7.85273 16.0383L8.50316 18.2304ZM15.0279 16.2491L15.6672 18.462L13.514 19.137L11.3609 19.812L11.9954 22.0097L12.63 24.2084L13.7093 23.878L14.7887 23.5477L14.4635 22.4531L14.1383 21.3585L15.227 21.0062L16.3157 20.654L16.0026 19.5376L15.6896 18.4212L16.7671 18.0908L17.8446 17.7604L17.1942 15.5684L16.5437 13.3763L15.4653 13.7067L14.3869 14.0371L15.0261 16.25M25.9496 12.8865L26.6001 15.0785L27.6785 14.7481L28.7569 14.4178L28.1065 12.2257L27.4561 10.0337L26.3776 10.364L25.2992 10.6944L25.9496 12.8865ZM32.4838 10.8852L33.1342 13.0773L34.2126 12.7469L35.291 12.4165L34.6406 10.2245L33.9902 8.03244L32.9118 8.36282L31.8333 8.69319L32.4838 10.8852ZM28.8345 14.451C28.7999 14.4757 28.8999 14.8981 29.0933 15.5503L29.4073 16.6098L30.411 16.3098C30.9633 16.1446 31.4577 16.0013 31.51 15.9899C31.5894 15.9728 31.6604 16.1465 31.952 17.0769L32.2987 18.1829L33.3772 17.8525L34.4556 17.5221L33.7874 15.3291L33.1192 13.1361L31.0054 13.7732C29.8428 14.1235 28.8662 14.4282 28.8354 14.45M44.2689 26.6273L44.9081 28.8403L27.4925 34.1747L10.0769 39.5091L10.3899 40.6255L10.703 41.7419L28.1504 36.398L45.5978 31.0542L45.2633 29.9273L44.9287 28.8004L46.0071 28.47L47.0856 28.1397L46.4351 25.9476L45.7847 23.7556L44.7063 24.0859L43.6279 24.4163L44.2671 26.6292" fill="#333333" fill-rule="evenodd" transform="matrix(1 0 0 1 0.082 0.02)" />
    </g>
  </g>
</svg>